<svg width="22" height="16" xmlns="http://www.w3.org/2000/svg">
  <path d="M19.748 3.986c.008.173.014.347.014.522C19.762 9.845 15.222 16 6.919 16c-2.55 0-4.921-.668-6.919-1.814.353.037.712.056 1.077.056 2.114 0 4.06-.645 5.606-1.73-1.976-.031-3.643-1.199-4.218-2.803a5.073 5.073 0 002.04-.07C2.439 9.267.885 7.634.885 5.678v-.052a4.9 4.9 0 002.044.506C1.717 5.408.919 4.17.919 2.77A3.7 3.7 0 011.533.74c2.226 2.443 5.552 4.052 9.303 4.22a3.646 3.646 0 01-.117-.92c0-2.231 2.021-4.04 4.513-4.04 1.3 0 2.472.491 3.294 1.276a9.699 9.699 0 002.867-.98c-.337.943-1.053 1.734-1.984 2.235A9.9 9.9 0 0022 1.895a8.718 8.718 0 01-2.252 2.09" fill="#fff" fill-rule="evenodd"/>
</svg>
