<?xml version="1.0" encoding="UTF-8"?>
<svg width="121px" height="30px" viewBox="0 0 121 30" version="1.1" xmlns="http://www.w3.org/2000/svg" xmlns:xlink="http://www.w3.org/1999/xlink">
    <!-- Generator: sketchtool 64 (101010) - https://sketch.com -->
    <title>B6D630B5-CBEA-492E-BC32-A6D1E4E65749@1.00x</title>
    <desc>Created with sketchtool.</desc>
    <g id="Logo" stroke="none" stroke-width="1" fill="none" fill-rule="evenodd">
        <g id="Logos" transform="translate(-168.000000, -555.000000)">
            <g id="Logo/vu" transform="translate(160.000000, 552.000000)">
                <g id="logo-VU">
                    <polygon id="Path" fill="#0089CF" fill-rule="nonzero" points="125.442654 23.2333333 125.442654 19.2634921 123.754502 19.2634921 123.754502 18.6126984 128.03981 18.6126984 128.03981 19.2634921 126.416588 19.2634921 126.416588 23.2333333"></polygon>
                    <polygon id="Path" fill="#000000" fill-rule="nonzero" points="16.7516588 31.7587302 8.76540284 10.0222222 13.5701422 10.0222222 19.8033175 26.8126984 25.8417062 10.0222222 29.0232227 10.0222222 21.2966825 31.7587302"></polygon>
                    <path d="M31.6853081,10.0222222 L36.1654028,10.0222222 L36.1654028,23.3634921 C36.1654028,25.7714286 36.5549763,27.3333333 37.3990521,28.1793651 C38.243128,28.9603175 39.2819905,29.3507937 40.5805687,29.3507937 C41.8791469,29.3507937 42.8530806,28.9603175 43.6322275,28.1793651 C44.4113744,27.3984127 44.736019,25.9015873 44.736019,23.6888889 L44.736019,10.0222222 L48.6317536,10.0222222 L48.6317536,23.3634921 C48.6317536,25.9015873 48.307109,27.6587302 47.6578199,28.7650794 C47.0085308,29.8714286 46.0995261,30.7174603 44.9308057,31.368254 C43.7620853,32.0190476 42.2037915,32.2793651 40.385782,32.2793651 C38.5677725,32.2793651 37.0744076,32.0190476 35.7758294,31.4333333 C34.4772512,30.847619 33.4383886,30.0015873 32.7241706,28.8301587 C31.9450237,27.6587302 31.6203791,25.8365079 31.6203791,23.3634921 L31.6203791,10.0222222 L31.6853081,10.0222222 Z" id="Path" fill="#000000" fill-rule="nonzero"></path>
                    <path d="M54.8649289,26.4222222 L54.8649289,27.0079365 L55.0597156,26.8777778 C54.9947867,26.747619 54.9947867,26.552381 54.9298578,26.4222222 L54.8649289,26.4222222 Z" id="Path" fill="#FFFFFF" fill-rule="nonzero"></path>
                    <path d="M57.7218009,20.0444444 C57.7218009,19.9793651 57.7867299,19.8492063 57.9165877,19.8492063 C57.9815166,19.8492063 58.1113744,19.9142857 58.1113744,20.0444444 C58.1113744,20.1095238 58.0464455,20.2396825 57.9165877,20.2396825 C57.7867299,20.2396825 57.7218009,20.1746032 57.7218009,20.0444444" id="Path" fill="#0089CF" fill-rule="nonzero"></path>
                    <path d="M68.4350711,25.315873 C68.1753555,24.6 67.4611374,24.1444444 66.5521327,24.2095238 C66.0327014,23.2333333 65.1886256,23.6888889 64.92891,23.9492063 C65.1886256,24.2095238 65.3834123,24.2746032 65.7080569,24.3396825 L65.7080569,24.5349206 C65.1236967,24.5349206 64.92891,24.2746032 64.5393365,23.8190476 C64.3445498,25.2507937 66.0327014,25.7714286 66.5521327,24.6 C67.3312796,24.6 67.8507109,24.9253968 67.9805687,25.4460317 C68.1753555,25.9666667 67.9805687,26.4873016 67.7208531,26.747619 C67.2663507,27.3333333 66.4872038,27.3333333 65.7729858,26.9428571 C65.3184834,26.747619 64.863981,26.2920635 64.4744076,25.8365079 C63.8900474,25.1857143 63.5654028,24.8603175 63.1109005,24.6650794 C62.8511848,24.5349206 62.5914692,24.4698413 62.3966825,24.4698413 C62.2668246,24.4698413 62.1369668,24.4047619 61.9421801,24.4047619 C61.8123223,24.4047619 61.6824645,24.4047619 61.5526066,24.4698413 C60.5137441,24.6 59.4748815,25.0555556 58.2412322,25.1857143 L57.5919431,25.1857143 C57.2023697,25.5761905 56.8127962,25.9015873 56.4881517,26.1619048 L55.7090047,26.8126984 C55.7090047,26.8126984 55.7090047,26.8126984 55.7090047,26.8126984 C55.3843602,27.1380952 55.1895735,27.268254 55.1895735,27.268254 C55.2545024,27.984127 55.3194313,28.3746032 55.3194313,29.0253968 C55.3194313,29.6111111 55.3194313,29.8714286 55.3194313,30.0666667 C55.3194313,30.3269841 55.2545024,30.5222222 55.1895735,30.7174603 C55.1246445,30.9126984 54.9947867,31.0428571 54.7350711,31.0428571 C54.5402844,31.1079365 54.0208531,30.7174603 53.8260664,30.9777778 C53.6962085,31.1730159 53.8260664,31.6285714 54.0208531,31.7587302 L55.4492891,31.7587302 C55.6440758,31.4333333 55.7090047,31.1730159 55.7739336,30.9777778 C55.9037915,30.7825397 55.9687204,30.5222222 56.0985782,30.3920635 C56.228436,30.1968254 56.2933649,30.0015873 56.3582938,29.8063492 C56.3582938,29.6111111 56.4232227,29.4809524 56.4881517,29.3507937 C56.6180095,29.0904762 56.7478673,28.8301587 56.8127962,28.7 C56.8127962,28.6349206 56.8777251,28.6349206 56.8777251,28.5698413 C56.942654,28.6349206 57.0075829,28.7650794 57.0075829,28.8301587 C57.3322275,29.3507937 57.656872,29.7412698 58.1113744,29.9365079 C58.3061611,30.0015873 58.436019,30.131746 58.5009479,30.1968254 C58.5658768,30.2619048 58.5658768,30.4571429 58.5658768,30.652381 C58.5658768,30.847619 58.5009479,31.0428571 58.3061611,31.1079365 C57.9815166,31.2380952 57.5270142,30.7825397 57.3322275,31.0428571 C57.1374408,31.2380952 57.3322275,31.5634921 57.5270142,31.8238095 L58.8255924,31.8238095 C59.150237,31.3031746 59.2800948,30.652381 59.2800948,30.0666667 C59.2800948,29.4809524 59.2800948,29.3507937 58.8905213,29.1555556 C58.7606635,29.0904762 58.6308057,28.7650794 58.5658768,28.5047619 C58.5658768,28.4396825 58.5658768,28.4396825 58.5658768,28.3095238 C59.150237,28.1142857 59.864455,27.7238095 60.578673,27.2031746 C60.578673,27.3333333 60.578673,27.3984127 60.578673,27.5285714 C60.7085308,28.3746032 60.7734597,29.0904762 61.4227488,29.6761905 C61.6175355,29.8714286 61.7473934,30.0015873 61.7473934,30.131746 C61.7473934,30.1968254 61.6824645,30.4571429 61.5526066,30.5873016 C61.4227488,30.9126984 61.0981043,31.1730159 60.8383886,31.1730159 C60.5137441,31.2380952 60.1890995,30.7825397 59.9293839,31.0428571 C59.7345972,31.2380952 59.9943128,31.6936508 60.1241706,31.8238095 L61.4227488,31.8238095 C61.8772512,31.0428571 62.4616114,30.3920635 62.6563981,29.9365079 C62.7862559,29.6111111 62.7862559,29.4809524 62.5265403,29.415873 C62.0720379,29.1555556 62.1369668,28.6349206 62.2668246,28.0492063 C62.2668246,27.9190476 62.3317536,27.8539683 62.3966825,27.7238095 C62.721327,28.6349206 63.1758294,29.4809524 64.149763,29.7412698 C64.3445498,29.7412698 64.5393365,29.8714286 64.6042654,29.9365079 C64.6042654,30.0015873 64.6042654,30.1968254 64.6042654,30.3269841 C64.5393365,30.5873016 64.4094787,30.9777778 64.149763,31.1079365 C63.8900474,31.3031746 63.3056872,30.652381 63.1109005,31.0428571 C62.9810427,31.3031746 63.2407583,31.6936508 63.3056872,31.8238095 L64.6042654,31.8238095 C64.92891,31.0428571 65.2535545,30.3269841 65.3834123,29.8063492 C65.4483412,29.2206349 65.4483412,28.9603175 64.9938389,28.8952381 C64.7341232,28.8952381 64.5393365,28.7650794 64.4744076,28.4396825 C64.2796209,27.8539683 64.3445498,26.8126984 63.8900474,26.1619048 C64.4094787,26.747619 64.92891,27.2031746 65.4483412,27.4634921 C66.5521327,28.0492063 67.7208531,27.8539683 68.2402844,27.0730159 C68.5649289,26.4222222 68.5649289,25.7714286 68.4350711,25.315873" id="Path" fill="#0089CF" fill-rule="nonzero"></path>
                    <path d="M79.4080569,10.152381 C78.4341232,10.0222222 76.2265403,10.2825397 74.278673,10.6730159 C75.4473934,10.0873016 75.8369668,9.95714286 76.2265403,9.6968254 C76.3563981,9.63174603 76.421327,9.43650794 76.421327,9.17619048 C76.421327,8.91587302 76.1616114,8.85079365 75.8369668,8.91587302 C75.5123223,8.91587302 74.8630332,9.17619048 74.0189573,9.43650794 C72.3957346,10.0873016 70.0582938,11.1936508 67.2663507,13.0809524 C64.7990521,14.7730159 63.1758294,16.2047619 61.4227488,17.9619048 C60.9682464,18.4174603 60.4488152,19.0031746 59.864455,19.6539683 C59.7995261,19.5238095 59.7345972,19.4587302 59.5398104,19.5238095 C60.1890995,18.0920635 60.2540284,18.0269841 60.578673,17.2460317 C60.7085308,16.8555556 60.6436019,16.5952381 60.5137441,16.4 C60.3189573,16.0746032 60.0592417,16.2698413 59.864455,16.4 C59.6047393,16.7253968 59.5398104,16.7904762 58.9554502,17.5063492 C59.6696682,15.0984127 60.0592417,14.9031746 60.7085308,13.5365079 C60.7734597,13.3412698 60.7734597,13.0809524 60.7085308,12.8857143 C60.6436019,12.6904762 60.5137441,12.6253968 60.3838863,12.6904762 C60.1241706,12.8206349 60.0592417,12.9507937 59.5398104,13.5365079 C60.2540284,12.1698413 61.2279621,10.5428571 61.3578199,10.2825397 C61.4876777,10.0222222 61.6175355,9.95714286 61.3578199,9.5015873 C61.0981043,9.11111111 60.9033175,9.43650794 60.7085308,9.56666667 C60.578673,9.63174603 60.2540284,9.95714286 59.7995261,10.5428571 C60.8383886,8.59047619 61.8123223,7.67936508 62.007109,7.35396825 C62.2668246,6.96349206 62.2668246,6.8984127 62.0720379,6.44285714 C61.8772512,6.05238095 61.5526066,6.24761905 61.4227488,6.44285714 C60.7085308,7.15873016 60.7085308,6.96349206 59.4748815,8.46031746 C60.1241706,6.76825397 61.2279621,5.46666667 61.6175355,4.81587302 C61.8123223,4.55555556 61.8123223,4.42539683 61.6175355,3.83968254 C61.5526066,3.57936508 61.292891,3.44920635 61.0331754,3.44920635 C60.7085308,3.57936508 60.3838863,3.77460317 59.7345972,4.36031746 C58.37109,5.5968254 56.5530806,7.35396825 55.0597156,10.5428571 C53.6312796,13.5365079 53.3066351,16.3349206 53.3066351,18.2873016 C53.3066351,21.2809524 54.085782,23.884127 54.8,25.5761905 C54.8,25.5111111 54.8,25.4460317 54.8,25.3809524 C54.7350711,24.6 54.8649289,23.6238095 55.0597156,23.168254 C55.3843602,21.9968254 55.7739336,21.3460317 56.0985782,20.8253968 L55.514218,20.0444444 L56.2933649,20.3047619 L55.8388626,19.2634921 C55.8388626,19.2634921 56.4232227,19.3285714 56.8777251,19.9142857 C57.1374408,19.6539683 57.7218009,19.4587302 58.2412322,19.8492063 C58.6308057,19.8492063 58.8255924,19.9142857 59.0203791,19.9793651 C59.4099526,20.2396825 59.3450237,20.6301587 59.3450237,20.7603175 C59.150237,20.5650794 58.5009479,20.1746032 57.9165877,20.6952381 L59.0853081,21.0857143 L57.5919431,21.215873 L57.5919431,22.7777778 L55.7739336,24.4047619 L55.7739336,24.9904762 L57.0075829,23.884127 L57.0075829,24.4698413 L54.8649289,26.4222222 L54.8649289,27.0079365 L57.5919431,24.5349206 L57.5919431,24.5349206 L58.3061611,23.9492063 L58.3061611,23.9492063 C58.6957346,23.6238095 58.8905213,23.4285714 59.150237,23.2984127 C59.4099526,23.1031746 59.4748815,23.2984127 59.5398104,23.6238095 C59.6047393,23.884127 59.9293839,24.1444444 60.578673,23.5587302 C62.4616114,21.8015873 64.4744076,20.8904762 66.6170616,19.8492063 C65.4483412,20.6301587 63.3706161,21.8015873 62.6563981,22.5825397 C62.3317536,22.9730159 62.6563981,23.8190476 63.1758294,23.4285714 C64.0848341,22.8428571 65.2535545,22.7126984 65.9028436,22.7777778 C66.1625592,22.7777778 66.4872038,22.5825397 66.6819905,22.3222222 C66.8767773,22.1269841 66.8767773,21.8666667 66.4872038,21.8666667 C68.4350711,21.2809524 68.9545024,21.0857143 70.5777251,20.9555556 C71.0322275,20.9555556 71.2919431,20.6952381 71.356872,20.3047619 C71.4218009,19.9793651 71.2919431,19.8492063 70.8374408,19.8492063 C70.3829384,19.784127 69.5388626,19.9142857 68.6947867,20.0444444 C70.5777251,19.2634921 72.850237,18.8079365 74.6682464,18.2873016 C75.2526066,18.0920635 75.3175355,17.9619048 75.3175355,17.6365079 C75.3824645,17.2460317 75.1227488,17.2460317 74.4734597,17.2460317 C73.1748815,17.3111111 71.2270142,17.4412698 68.2402844,18.2873016 C71.0322275,16.8555556 72.6554502,16.2047619 75.1876777,15.5539683 C75.9018957,15.3587302 75.9668246,15.1634921 76.0317536,14.8380952 C76.1616114,14.447619 75.8369668,14.447619 75.5772512,14.447619 C75.1876777,14.447619 74.3436019,14.447619 72.5905213,14.968254 C74.278673,14.252381 76.1616114,13.3412698 77.4601896,12.9507937 C77.7199052,12.8206349 77.9146919,12.6904762 77.9146919,12.3650794 C77.9146919,12.1047619 77.849763,12.1047619 77.5900474,12.1047619 C77.0056872,12.1047619 76.0966825,12.3 74.992891,12.6253968 C77.2654028,11.6492063 77.9796209,11.3238095 79.5379147,11.0634921 C80.057346,10.9333333 80.1222749,10.8031746 80.1872038,10.4777778 C79.9924171,10.152381 79.7327014,10.152381 79.4080569,10.152381 M56.6180095,17.9619048 C56.6180095,17.7666667 56.4881517,17.6365079 56.3582938,17.5714286 C56.6829384,16.7253968 57.0075829,16.1396825 57.656872,15.2285714 C57.0725118,16.4 56.8127962,17.4412698 56.6180095,17.9619048 M54.5402844,17.2460317 C54.9947867,12.3650794 57.2023697,8.78571429 58.6957346,7.09365079 C56.5530806,10.347619 55.3194313,14.8380952 54.5402844,17.2460317 M62.6563981,18.6777778 C65.5132701,15.9444444 69.4090047,13.0809524 74.3436019,11.9095238 C70.1881517,13.3412698 64.4744076,17.2460317 62.6563981,18.6777778" id="Shape" fill="#0089CF" fill-rule="nonzero"></path>
                    <polygon id="Path" fill="#0089CF" fill-rule="nonzero" points="85.6412322 14.7730159 83.9530806 10.0873016 84.9919431 10.0873016 86.2905213 13.731746 87.5890995 10.0873016 88.3033175 10.0873016 86.6151659 14.7730159"></polygon>
                    <path d="M89.7966825,12.2349206 L89.9914692,12.2349206 C90.3810427,12.2349206 90.6407583,12.1698413 90.835545,11.9746032 C90.9654028,11.7793651 91.0952607,11.584127 91.0952607,11.3888889 C91.0952607,11.1936508 91.0303318,11.0634921 90.9004739,10.9333333 C90.7706161,10.8031746 90.5109005,10.7380952 90.121327,10.7380952 L89.7966825,10.7380952 L89.7966825,12.2349206 L89.7966825,12.2349206 Z M88.8876777,14.7730159 L88.8876777,10.152381 L90.6407583,10.152381 C90.9654028,10.152381 91.2900474,10.2174603 91.4199052,10.2825397 C91.6146919,10.347619 91.7445498,10.4777778 91.8744076,10.6730159 C92.0042654,10.868254 92.0042654,11.0634921 92.0042654,11.2587302 C92.0042654,11.5190476 91.9393365,11.7793651 91.7445498,12.0396825 C91.6146919,12.3 91.3549763,12.4952381 91.0952607,12.6253968 L92.5886256,14.7730159 L91.4199052,14.7730159 L90.2511848,12.8857143 L89.7317536,12.8857143 L89.7317536,14.7730159 L88.8876777,14.7730159 L88.8876777,14.7730159 Z" id="Shape" fill="#0089CF" fill-rule="nonzero"></path>
                    <rect id="Rectangle" fill="#0089CF" fill-rule="nonzero" x="93.3028436" y="10.0873016" width="1" height="4.62063492"></rect>
                    <path d="M94.6663507,15.5539683 L94.6663507,14.8380952 C94.9260664,14.968254 95.185782,14.968254 95.4454976,14.968254 C95.5753555,14.968254 95.6402844,14.968254 95.7701422,14.9031746 C95.8350711,14.8380952 95.9,14.7730159 95.9649289,14.7079365 C96.0298578,14.6428571 96.0298578,14.447619 96.0298578,14.1222222 L96.0298578,10.0222222 L97.0037915,10.0222222 L97.0037915,13.9920635 C97.0037915,14.447619 96.9388626,14.7730159 96.8739336,14.968254 C96.7440758,15.1634921 96.614218,15.3587302 96.4194313,15.4238095 C96.2246445,15.5539683 95.9,15.6190476 95.5753555,15.6190476 C95.185782,15.684127 94.9260664,15.684127 94.6663507,15.5539683" id="Path" fill="#0089CF" fill-rule="nonzero"></path>
                    <polygon id="Path" fill="#0089CF" fill-rule="nonzero" points="98.1075829 14.7730159 98.1075829 10.0873016 101.094313 10.0873016 101.094313 10.7380952 99.0815166 10.7380952 99.0815166 12.0396825 100.769668 12.0396825 100.769668 12.6904762 99.0815166 12.6904762 99.0815166 14.1222222 101.224171 14.1222222 101.224171 14.7730159"></polygon>
                    <path d="M84.4075829,18.6126984 L85.3815166,18.6126984 L85.3815166,21.4761905 C85.3815166,21.9968254 85.4464455,22.3222222 85.6412322,22.5174603 C85.836019,22.7126984 86.0308057,22.7777778 86.2905213,22.7777778 C86.550237,22.7777778 86.8099526,22.7126984 86.9398104,22.5174603 C87.0696682,22.3222222 87.1995261,22.0619048 87.1995261,21.5412698 L87.1995261,18.6126984 L88.0436019,18.6126984 L88.0436019,21.4761905 C88.0436019,21.9968254 87.978673,22.3873016 87.8488152,22.647619 C87.7189573,22.9079365 87.5241706,23.0380952 87.264455,23.168254 C87.0047393,23.2984127 86.6800948,23.3634921 86.2905213,23.3634921 C85.9009479,23.3634921 85.5763033,23.2984127 85.3165877,23.168254 C85.056872,23.0380952 84.7971564,22.8428571 84.6672986,22.5825397 C84.5374408,22.3222222 84.4075829,21.931746 84.4075829,21.4111111 L84.4075829,18.6126984 Z" id="Path" fill="#0089CF" fill-rule="nonzero"></path>
                    <polygon id="Path" fill="#0089CF" fill-rule="nonzero" points="89.2123223 23.2333333 89.2123223 18.6126984 90.0563981 18.6126984 92.1990521 21.8015873 92.1990521 18.6126984 92.9781991 18.6126984 92.9781991 23.2333333 92.1341232 23.2333333 89.9914692 20.1095238 89.9914692 23.2333333"></polygon>
                    <rect id="Rectangle" fill="#0089CF" fill-rule="nonzero" x="94.2118483" y="18.6126984" width="1" height="4.62063492"></rect>
                    <polygon id="Path" fill="#0089CF" fill-rule="nonzero" points="97.5232227 23.2333333 95.8350711 18.6126984 96.8739336 18.6126984 98.1725118 22.1920635 99.47109 18.6126984 100.185308 18.6126984 98.4971564 23.2333333"></polygon>
                    <polygon id="Path" fill="#0089CF" fill-rule="nonzero" points="100.704739 23.2333333 100.704739 18.6126984 103.62654 18.6126984 103.62654 19.2634921 101.678673 19.2634921 101.678673 20.5650794 103.301896 20.5650794 103.301896 21.1507937 101.678673 21.1507937 101.678673 22.5825397 103.821327 22.5825397 103.821327 23.2333333"></polygon>
                    <g id="Group" transform="translate(104.535545, 18.222222)" fill="#0089CF" fill-rule="nonzero">
                        <path d="M0.973933649,2.47301587 L1.16872038,2.47301587 C1.55829384,2.47301587 1.81800948,2.40793651 2.01279621,2.21269841 C2.14265403,2.01746032 2.27251185,1.82222222 2.27251185,1.62698413 C2.27251185,1.43174603 2.20758294,1.3015873 2.07772512,1.17142857 C1.9478673,1.04126984 1.68815166,0.976190476 1.2985782,0.976190476 L0.973933649,0.976190476 L0.973933649,2.47301587 L0.973933649,2.47301587 Z M0.06492891,5.01111111 L0.06492891,0.39047619 L1.81800948,0.39047619 C2.14265403,0.39047619 2.46729858,0.455555556 2.5971564,0.520634921 C2.79194313,0.585714286 2.92180095,0.715873016 3.05165877,0.911111111 C3.18151659,1.10634921 3.18151659,1.3015873 3.18151659,1.4968254 C3.18151659,1.75714286 3.11658768,2.01746032 2.92180095,2.27777778 C2.79194313,2.53809524 2.53222749,2.73333333 2.27251185,2.7984127 L3.76587678,4.94603175 L2.5971564,4.94603175 L1.42843602,3.05873016 L0.909004739,3.05873016 L0.909004739,4.94603175 L0.06492891,4.94603175 L0.06492891,5.01111111 Z" id="Shape"></path>
                        <path d="M4.09052133,5.01111111 L4.09052133,4.23015873 C4.48009479,4.36031746 4.73981043,4.49047619 4.93459716,4.49047619 C5.12938389,4.49047619 5.25924171,4.55555556 5.45402844,4.55555556 C5.71374408,4.55555556 5.90853081,4.49047619 6.03838863,4.36031746 C6.16824645,4.23015873 6.23317536,4.1 6.23317536,3.9047619 C6.23317536,3.77460317 6.16824645,3.64444444 6.10331754,3.57936508 C6.03838863,3.44920635 5.8436019,3.31904762 5.58388626,3.18888889 L5.25924171,2.99365079 C4.80473934,2.73333333 4.48009479,2.53809524 4.35023697,2.27777778 C4.22037915,2.08253968 4.09052133,1.82222222 4.09052133,1.56190476 C4.09052133,1.23650794 4.22037915,0.911111111 4.48009479,0.650793651 C4.73981043,0.39047619 5.12938389,0.26031746 5.64881517,0.26031746 C6.03838863,0.26031746 6.42796209,0.325396825 6.88246445,0.39047619 L6.88246445,1.10634921 C6.42796209,0.911111111 6.03838863,0.846031746 5.71374408,0.846031746 C5.45402844,0.846031746 5.32417062,0.911111111 5.1943128,0.976190476 C5.06445498,1.10634921 4.99952607,1.17142857 4.99952607,1.36666667 C4.99952607,1.4968254 5.06445498,1.56190476 5.12938389,1.69206349 C5.1943128,1.75714286 5.38909953,1.88730159 5.64881517,2.08253968 L5.97345972,2.27777778 C6.492891,2.53809524 6.81753555,2.7984127 6.94739336,2.99365079 C7.07725118,3.18888889 7.14218009,3.44920635 7.14218009,3.70952381 C7.14218009,4.1 7.01232227,4.42539683 6.68767773,4.68571429 C6.42796209,4.94603175 5.90853081,5.07619048 5.32417062,5.07619048 C5.06445498,5.14126984 4.60995261,5.07619048 4.09052133,5.01111111" id="Path"></path>
                    </g>
                    <rect id="Rectangle" fill="#0089CF" fill-rule="nonzero" x="112.58673" y="18.6126984" width="1" height="4.62063492"></rect>
                    <polygon id="Path" fill="#0089CF" fill-rule="nonzero" points="115.57346 23.2333333 115.57346 19.2634921 113.885308 19.2634921 113.885308 18.6126984 118.170616 18.6126984 118.170616 19.2634921 116.482464 19.2634921 116.482464 23.2333333"></polygon>
                    <polygon id="Path" fill="#0089CF" fill-rule="nonzero" points="118.56019 23.2333333 118.56019 18.6126984 121.481991 18.6126984 121.481991 19.2634921 119.469194 19.2634921 119.469194 20.5650794 121.157346 20.5650794 121.157346 21.1507937 119.469194 21.1507937 119.469194 22.5825397 121.676777 22.5825397 121.676777 23.2333333"></polygon>
                    <rect id="Rectangle" fill="#0089CF" fill-rule="nonzero" x="122.455924" y="18.6126984" width="1" height="4.62063492"></rect>
                    <path d="M85.3815166,29.8714286 L86.8099526,29.8714286 L86.0957346,28.0492063 L85.3815166,29.8714286 Z M83.9530806,31.7587302 L85.77109,27.1380952 L86.7450237,27.1380952 L88.5630332,31.7587302 L87.5890995,31.7587302 L87.1345972,30.5222222 L85.1867299,30.5222222 L84.7322275,31.7587302 L83.9530806,31.7587302 Z" id="Shape" fill="#0089CF" fill-rule="nonzero"></path>
                    <polygon id="Path" fill="#0089CF" fill-rule="nonzero" points="89.1473934 31.7587302 89.1473934 27.0730159 90.3810427 27.0730159 91.549763 30.3920635 92.6535545 27.0730159 93.8222749 27.0730159 93.8222749 31.7587302 92.9132701 31.7587302 92.9132701 28.2444444 91.7445498 31.4333333 90.9654028 31.4333333 89.8616114 28.1793651 89.8616114 31.7587302"></polygon>
                    <path d="M94.7312796,31.6936508 L94.7312796,30.9126984 C95.1208531,31.0428571 95.3805687,31.1730159 95.5104265,31.1730159 C95.7052133,31.1730159 95.8350711,31.2380952 96.0298578,31.2380952 C96.2895735,31.2380952 96.4843602,31.1730159 96.614218,31.0428571 C96.7440758,30.9126984 96.8090047,30.7825397 96.8090047,30.5873016 C96.8090047,30.4571429 96.7440758,30.3269841 96.6791469,30.2619048 C96.614218,30.131746 96.4194313,30.0015873 96.1597156,29.8714286 L95.8350711,29.6761905 C95.3805687,29.415873 95.0559242,29.2206349 94.9260664,28.9603175 C94.7962085,28.7650794 94.6663507,28.5047619 94.6663507,28.2444444 C94.6663507,27.9190476 94.7962085,27.5936508 95.0559242,27.3333333 C95.3156398,27.0730159 95.7052133,26.9428571 96.2246445,26.9428571 C96.614218,26.9428571 97.0037915,27.0079365 97.4582938,27.0730159 L97.4582938,27.7888889 C97.0037915,27.5936508 96.614218,27.5285714 96.2895735,27.5285714 C96.0298578,27.5285714 95.9,27.5936508 95.7701422,27.6587302 C95.6402844,27.7888889 95.5753555,27.8539683 95.5753555,28.0492063 C95.5753555,28.1793651 95.6402844,28.2444444 95.7052133,28.3746032 C95.7701422,28.4396825 95.9649289,28.5698413 96.2246445,28.7650794 L96.5492891,28.9603175 C97.0687204,29.2206349 97.3933649,29.4809524 97.5232227,29.7412698 C97.6530806,29.9365079 97.7180095,30.1968254 97.7180095,30.4571429 C97.7180095,30.847619 97.5881517,31.1730159 97.2635071,31.4333333 C97.0037915,31.6936508 96.4843602,31.8238095 95.9,31.8238095 C95.7052133,31.8238095 95.2507109,31.8238095 94.7312796,31.6936508" id="Path" fill="#0089CF" fill-rule="nonzero"></path>
                    <polygon id="Path" fill="#0089CF" fill-rule="nonzero" points="99.47109 31.7587302 99.47109 27.7238095 97.8478673 27.7238095 97.8478673 27.0730159 102.133175 27.0730159 102.133175 27.7238095 100.445024 27.7238095 100.445024 31.7587302"></polygon>
                    <polygon id="Path" fill="#0089CF" fill-rule="nonzero" points="102.522749 31.7587302 102.522749 27.0730159 105.44455 27.0730159 105.44455 27.7238095 103.496682 27.7238095 103.496682 29.0253968 105.119905 29.0253968 105.119905 29.6761905 103.496682 29.6761905 103.496682 31.1079365 105.639336 31.1079365 105.639336 31.7587302"></polygon>
                    <g id="Group" transform="translate(105.834123, 26.682540)" fill="#0089CF" fill-rule="nonzero">
                        <path d="M1.42843602,2.53809524 L1.62322275,2.53809524 C2.01279621,2.53809524 2.27251185,2.47301587 2.46729858,2.27777778 C2.5971564,2.08253968 2.66208531,1.88730159 2.66208531,1.69206349 C2.66208531,1.4968254 2.5971564,1.36666667 2.46729858,1.23650794 C2.33744076,1.10634921 2.07772512,1.04126984 1.68815166,1.04126984 L1.36350711,1.04126984 L1.36350711,2.53809524 L1.42843602,2.53809524 Z M0.51943128,5.07619048 L0.51943128,0.455555556 L2.27251185,0.455555556 C2.5971564,0.455555556 2.92180095,0.520634921 3.11658768,0.585714286 C3.31137441,0.650793651 3.44123223,0.780952381 3.57109005,0.976190476 C3.70094787,1.17142857 3.76587678,1.36666667 3.76587678,1.56190476 C3.76587678,1.82222222 3.70094787,2.08253968 3.50616114,2.34285714 C3.37630332,2.6031746 3.11658768,2.7984127 2.85687204,2.92857143 L4.35023697,5.07619048 L3.18151659,5.07619048 L2.01279621,3.18888889 L1.49336493,3.18888889 L1.49336493,5.07619048 L0.51943128,5.07619048 Z" id="Shape"></path>
                        <path d="M5.77867299,4.42539683 L6.492891,4.42539683 C6.88246445,4.42539683 7.14218009,4.36031746 7.33696682,4.23015873 C7.53175355,4.1 7.66161137,3.9047619 7.79146919,3.64444444 C7.92132701,3.38412698 7.98625592,3.05873016 7.98625592,2.73333333 C7.98625592,2.40793651 7.92132701,2.08253968 7.79146919,1.88730159 C7.66161137,1.62698413 7.53175355,1.43174603 7.33696682,1.3015873 C7.14218009,1.17142857 6.81753555,1.10634921 6.29810427,1.10634921 L5.71374408,1.10634921 L5.71374408,4.42539683 L5.77867299,4.42539683 Z M4.80473934,5.07619048 L4.80473934,0.455555556 L6.81753555,0.455555556 C7.33696682,0.455555556 7.79146919,0.520634921 8.05118483,0.715873016 C8.37582938,0.911111111 8.57061611,1.17142857 8.76540284,1.4968254 C8.96018957,1.82222222 9.02511848,2.21269841 9.02511848,2.73333333 C9.02511848,3.18888889 8.96018957,3.57936508 8.76540284,3.96984127 C8.57061611,4.36031746 8.37582938,4.62063492 8.05118483,4.81587302 C7.72654028,5.01111111 7.27203791,5.14126984 6.75260664,5.14126984 L4.80473934,5.14126984 L4.80473934,5.07619048 Z" id="Shape"></path>
                    </g>
                    <path d="M116.352607,29.8714286 L117.781043,29.8714286 L117.066825,28.0492063 L116.352607,29.8714286 Z M114.924171,31.7587302 L116.74218,27.1380952 L117.716114,27.1380952 L119.534123,31.7587302 L118.56019,31.7587302 L118.105687,30.5222222 L116.15782,30.5222222 L115.703318,31.7587302 L114.924171,31.7587302 Z" id="Shape" fill="#0089CF" fill-rule="nonzero"></path>
                    <polygon id="Path" fill="#0089CF" fill-rule="nonzero" points="119.988626 31.7587302 119.988626 27.0730159 121.287204 27.0730159 122.390995 30.3920635 123.559716 27.0730159 124.663507 27.0730159 124.663507 31.7587302 123.754502 31.7587302 123.754502 28.2444444 122.650711 31.4333333 121.871564 31.4333333 120.767773 28.1793651 120.767773 31.7587302"></polygon>
                </g>
            </g>
        </g>
    </g>
</svg>