<?xml version="1.0" encoding="UTF-8"?>
<svg width="386px" height="39px" viewBox="0 0 386 39" version="1.1" xmlns="http://www.w3.org/2000/svg" xmlns:xlink="http://www.w3.org/1999/xlink">
    <!-- Generator: sketchtool 64 (101010) - https://sketch.com -->
    <title>514D55D3-C0A0-4F9E-896A-E1135222E128@1.00x</title>
    <desc>Created with sketchtool.</desc>
    <g id="Logo" stroke="none" stroke-width="1" fill="none" fill-rule="evenodd">
        <g id="Logos" transform="translate(-160.000000, -433.000000)" fill="#000000">
            <g id="Logo/uva" transform="translate(160.000000, 433.000000)">
                <g id="Fill-4">
                    <path d="M24.8060636,27.0056429 L24.811545,23.4547857 L23.2374704,24.9562857 C23.2374704,24.9562857 22.3202499,25.9136429 20.2446275,26.4568571 C18.169005,26.9963571 16.5949304,26.8988571 15.6521301,26.7057143 C14.7084162,26.5144286 13.8597131,26.2581429 13.3252769,26 C12.7899271,25.7437143 11.8471268,25.2627143 10.9993373,23.9172143 C10.4968759,23.1242143 10.4968759,21.1352143 10.4968759,21.1352143 L10.5352457,17.4274286 L10.2593487,11.1567857 C10.2593487,11.1567857 11.1939269,11.1985714 11.8306826,11.2013571 C12.6163495,11.2050714 13.2923885,11.0267857 13.3106599,11.1298571 C13.3408075,11.3248571 13.3627331,19.8612143 13.3627331,19.8612143 C13.3627331,19.8612143 13.4540897,21.6830714 13.8953422,22.6107143 C14.6673057,24.2403571 18.1087096,24.375 18.1087096,24.375 C18.1087096,24.375 18.6431459,24.44 19.8399176,24.3443571 C21.0339487,24.2515 23.3653697,23.9005 24.1190618,22.4649286 C24.1190618,22.4649286 24.6553252,21.8576429 24.8490012,18.4052143 C25.0499858,14.7884286 24.5740178,11.2087857 24.5740178,11.2087857 L27.9094481,11.0537143 C27.9094481,11.0537143 27.6837972,13.6100714 27.6783158,18.4061429 C27.6746616,23.205 28.1104326,26.0185714 28.1104326,26.0185714 L24.8060636,27.0056429 Z M23.6842043,35.3971429 L22.0808956,37.0277143 L19.18215,34.0822857 L16.2834043,37.0267857 L14.6782685,35.3971429 L17.5770141,32.4507857 L14.6791821,29.5044286 L16.2834043,27.8738571 L19.18215,30.8192857 L22.0808956,27.8738571 L23.6842043,29.5044286 L20.7854587,32.4507857 L23.6842043,35.3971429 Z M17.5806684,17.3475714 L14.6819227,14.4012143 L16.286145,12.7715714 L19.1848907,15.7160714 L22.0836363,12.7715714 L23.6878586,14.4012143 L20.7891129,17.3475714 L23.6878586,20.2939286 L22.0836363,21.9245 L19.1848907,18.9781429 L16.286145,21.9235714 L14.6819227,20.2939286 L17.5806684,17.3475714 Z M14.6810092,3.58057143 L16.2870586,1.95 L19.1848907,4.89635714 L22.0836363,1.95 L23.6878586,3.57964286 L20.7891129,6.526 L23.6878586,9.47328571 L22.0836363,11.1038571 L19.1848907,8.15842857 L16.286145,11.1038571 L14.6819227,9.47328571 L17.5806684,6.526 L14.6819227,3.58057143 L14.6810092,3.58057143 Z M0,39 L38.3697813,39 L38.3697813,0 L0,0 L0,39 Z M381.900828,5.3625 C382.515658,5.3625 383.149673,5.421 383.782775,5.421 C384.274273,5.421 384.792265,5.3625 385.286505,5.3625 C385.581587,5.3625 385.640055,5.4405 385.640055,5.50364286 L385.640055,5.824 C385.640055,5.96328571 385.581587,6.06542857 385.505761,6.06542857 C385.365985,6.06542857 385.146729,6.02364286 384.909202,6.02364286 C383.764503,6.02364286 383.764503,6.60771429 383.764503,7.91607143 C383.764503,9.06192857 383.980105,16.5842857 383.980105,17.6902143 C383.980105,18.252 384.257829,18.8973571 385.109273,18.8973571 C385.897681,18.8973571 386,18.9382143 386,19.1202143 C386,19.3616429 385.880323,19.5622143 385.820941,19.5622143 C384.769426,19.5622143 383.941735,19.4600714 383.108563,19.4600714 C382.279045,19.4600714 381.427601,19.5622143 380.57433,19.5622143 C380.437295,19.5622143 380.417197,19.4814286 380.417197,19.3616429 L380.417197,19.1592143 C380.417197,18.9586429 380.597169,18.8982857 381.504341,18.8982857 C381.900828,18.8982857 382.255292,18.4154286 382.255292,17.7106429 C382.255292,15.5396429 382.179466,10.8522143 382.099986,7.41278571 C382.021419,7.39421429 382.038777,7.39421429 382.038777,7.39421429 C380.931535,9.70635714 379.486273,13.065 378.815715,14.8562143 L376.955694,19.8240714 C376.92646,19.8983571 376.856116,19.9447857 376.777549,19.9429823 C376.677057,19.9429823 376.600317,19.8417143 376.539108,19.5622143 C376.420345,19.0561429 376.242199,18.5742143 376.043955,18.0932143 L372.304729,8.84 C372.164953,8.49735714 372.04893,8.25685714 371.96945,8.25685714 C371.88997,8.25685714 371.88997,8.658 371.88997,8.88178571 C371.88997,10.4705714 371.649702,16.5425 371.649702,17.5305 C371.649702,18.3940714 371.649702,18.8982857 373.392786,18.8982857 C373.51155,18.8982857 373.529821,18.9976429 373.529821,19.2390714 C373.529821,19.3189286 373.51155,19.5622143 373.429329,19.5622143 C373.156172,19.5622143 372.185965,19.4600714 371.116179,19.4600714 C369.987011,19.4600714 368.878855,19.5622143 368.604786,19.5622143 C368.545404,19.5622143 368.487849,19.5 368.487849,19.3987857 L368.487849,19.0988571 C368.487849,18.9177857 368.643155,18.8982857 368.878855,18.8982857 C370.50409,18.8982857 370.742531,18.395 370.742531,16.6437143 C370.742531,15.6585 371.077809,8.25685714 371.077809,7.53257143 C371.077809,6.46657143 370.566212,6.02364286 368.78019,6.02364286 C368.725376,6.02364286 368.680612,5.92521429 368.680612,5.80264286 L368.680612,5.54264286 C368.680612,5.4405 368.742734,5.3625 368.842313,5.3625 C369.593264,5.3625 370.304019,5.46185714 371.100648,5.46185714 C371.593974,5.46185714 372.105571,5.3625 372.601638,5.3625 C372.741413,5.3625 372.878448,5.68471429 372.978027,5.94564286 L377.25169,16.3437857 L377.351269,16.3437857 L381.900828,5.3625 Z M358.046701,13.9285714 L357.178813,16.7857857 C357.018025,17.3076429 356.941286,17.771 356.941286,18.0932143 C356.941286,18.7562143 357.870382,18.8982857 358.407559,18.8982857 C358.582051,18.8982857 358.621334,19.0180714 358.621334,19.279 C358.621334,19.4805 358.601235,19.5622143 358.465114,19.5622143 C358.008331,19.5622143 356.56581,19.4600714 356.03046,19.4600714 C355.496024,19.4600714 354.664679,19.5622143 354.071774,19.5622143 C353.677114,19.5622143 353.677114,19.5 353.677114,19.2381429 L353.677114,19.0180714 C353.677114,18.9177857 353.855259,18.876 354.3294,18.837 C355.358075,18.7357857 355.496024,18.5352143 355.8715,17.4292857 L359.787958,5.84442857 C360.183532,5.50364286 360.601032,5.03935714 361.094358,4.87685714 L366.061417,17.6094286 C366.402177,18.4535 366.756641,18.876 367.903167,18.876 C368.122423,18.876 368.158965,19.1202143 368.158965,19.3402857 C368.158965,19.5631429 368.022844,19.5631429 367.787144,19.5631429 C367.47105,19.5631429 366.201193,19.4591429 365.430143,19.4591429 C364.638081,19.4591429 363.845106,19.5 363.053957,19.5622143 C362.758875,19.5622143 362.738777,19.5 362.738777,19.2167857 C362.738777,18.9976429 362.85754,18.8982857 363.133437,18.8982857 C363.430346,18.8982857 364.401467,18.837 364.401467,18.3532143 C364.401467,18.1944286 364.321987,17.8722143 364.044263,17.1674286 L362.777147,13.9285714 L358.044874,13.9285714 L358.046701,13.9285714 Z M362.422683,13.1457857 L360.223729,7.39421429 L360.183532,7.39421429 L358.310721,13.1457857 L362.421769,13.1457857 L362.422683,13.1457857 Z M341.924998,7.579 C341.924998,6.81478571 341.768778,6.03107143 341.035184,6.03107143 C340.797657,6.03107143 340.167296,6.11092857 339.790907,6.11092857 C339.708686,6.11092857 339.708686,5.81007143 339.708686,5.70885714 C339.708686,5.58814286 339.708686,5.52778571 340.046705,5.44885714 C341.375031,5.16564286 344.536883,4.94557143 346.237944,4.94557143 C347.329655,4.94557143 348.358331,5.04585714 349.328538,5.30492857 C352.017164,6.0515 354.531298,8.48528571 354.531298,12.1856429 C354.531298,17.1720714 350.43304,19.4275714 346.673715,19.4275714 C344.793596,19.4275714 343.80329,19.3449286 342.818465,19.3449286 C341.826332,19.3449286 340.838767,19.4052857 339.848462,19.4275714 C339.769895,19.4275714 339.749796,19.2465 339.749796,19.1025714 C339.749796,18.9632857 339.848462,18.7627143 339.927942,18.7627143 C340.56287,18.6819286 341.073554,18.642 341.432585,18.4005714 C341.728581,18.1990714 341.924998,17.8759286 341.924998,17.2342857 L341.924998,7.57807143 L341.924998,7.579 Z M343.710106,16.549 C343.710106,18.7627143 345.946516,18.7627143 346.814404,18.7627143 C349.524041,18.7627143 352.411824,16.4905 352.411824,12.285 C352.411824,8.70442857 350.515261,6.93457143 349.147652,6.13135714 C348.19937,5.70885714 346.952353,5.60857143 346.100909,5.60857143 C344.481156,5.60857143 343.710106,5.72742857 343.710106,7.01721429 L343.710106,16.5499286 L343.710106,16.549 Z M327.730919,7.53257143 C327.730919,6.52878571 327.690722,6.02364286 326.442791,6.02364286 L325.630631,6.02364286 C325.513694,6.02364286 325.492682,5.80357143 325.492682,5.64292857 C325.492682,5.54171429 325.554805,5.36157143 325.630631,5.36157143 C326.77807,5.36157143 327.951089,5.421 329.097614,5.421 C330.00844,5.421 330.898253,5.36157143 331.805425,5.36157143 C333.824406,5.36157143 335.805931,6.73028571 335.805931,8.84 C335.805931,10.6692857 334.162425,11.8968571 332.617585,12.1392143 L332.617585,12.1782143 C333.390462,12.3592857 334.203536,13.8282857 334.399039,14.1486429 L336.576067,17.5295714 C337.26581,18.5974286 337.721679,18.798 338.913883,18.8574286 L339.029906,18.9772143 L339.029906,19.3607143 C339.029906,19.539 338.891958,19.5622143 338.812478,19.5622143 C338.394064,19.5622143 337.780148,19.5 337.485979,19.5 C337.010925,19.5 336.53587,19.5622143 336.062643,19.5622143 C335.606774,19.5622143 334.715133,18.213 333.549423,16.1023571 C332.263121,13.7874286 331.508516,12.5199286 330.202116,12.5199286 C330.04681,12.5199286 329.806542,12.5199286 329.512373,12.5617143 L329.512373,17.4905714 C329.512373,18.213 329.512373,18.8973571 330.503593,18.8973571 C331.249976,18.8973571 331.590737,18.8973571 331.590737,19.0561429 C331.590737,19.4387143 331.533182,19.5622143 331.231705,19.5622143 C330.202116,19.5622143 329.354326,19.4600714 328.500142,19.4600714 C328.16669,19.4600714 325.973218,19.5622143 325.691839,19.5622143 C325.573076,19.5622143 325.534706,19.3003571 325.534706,19.1378571 C325.534706,18.9586429 325.611446,18.9177857 326.00702,18.8973571 C327.371888,18.837 327.730919,18.6355 327.730919,17.2463571 L327.730919,7.53257143 Z M329.512373,11.817 C329.769085,11.8374286 330.00844,11.8587857 330.262411,11.8587857 C331.844708,11.8587857 333.82532,11.2942143 333.82532,8.92078571 C333.82532,7.15278571 332.639511,6.00507143 330.898253,6.00507143 C329.551657,6.00507143 329.512373,6.32542857 329.512373,6.929 L329.512373,11.817 Z M315.310073,7.41185714 C315.310073,6.10628571 314.339866,5.96328571 313.19334,5.96328571 C313.114773,5.96328571 313.114773,5.86207143 313.114773,5.78407143 L313.114773,5.56121429 C313.114773,5.38107143 313.451879,5.3625 314.143449,5.3625 C314.933684,5.3625 315.824411,5.46092857 316.657583,5.46092857 C317.448731,5.46092857 318.23988,5.3625 319.028287,5.3625 L323.207853,5.3625 C323.363159,5.3625 323.384171,5.54171429 323.384171,5.76271429 L323.384171,8.21785714 C323.384171,8.29864286 323.343974,8.37942857 323.243482,8.37942857 C323.085435,8.37942857 322.768428,8.398 322.749243,8.15842857 L322.688034,7.5335 C322.571097,6.2465 321.700469,6.02457143 320.595967,6.02457143 L318.55506,6.02457143 C317.448731,6.02457143 317.091527,6.26692857 317.091527,7.79442857 L317.091527,11.4362857 C317.091527,11.4957143 317.209377,11.5978571 317.251401,11.5978571 L319.583736,11.518 C320.769545,11.4762143 321.109391,11.0955 321.405387,10.0267143 C321.443757,9.90692857 321.504965,9.86514286 321.724221,9.86514286 C321.86217,9.86514286 321.956267,9.88928571 321.956267,9.98771429 C321.956267,10.4111429 321.840244,11.336 321.840244,11.999 C321.840244,13.0854286 321.956267,13.6685714 321.956267,14.0102857 C321.956267,14.131 321.760764,14.2517143 321.641087,14.2517143 C321.484867,14.2517143 321.346005,14.1913571 321.304894,13.9889286 C321.206229,13.4494286 321.206229,13.0659286 321.109391,12.7845714 C321.007072,12.4827857 320.769545,12.3416429 320.17664,12.3202857 L317.369251,12.2617857 C317.091527,12.2617857 317.091527,12.3602143 317.091527,12.5004286 L317.091527,17.2909286 C317.091527,18.7376429 318.139387,18.7775714 319.506083,18.7775714 L320.574041,18.7775714 C321.623729,18.7775714 322.356409,18.7562143 322.849735,18.4544286 C323.288247,18.1944286 323.898509,16.9687143 324.114111,16.4654286 C324.375391,16.4654286 324.707929,16.5248571 324.707929,16.6650714 C324.707929,16.7263571 324.64946,16.8860714 324.611091,16.9872857 L324.055642,19.019 C323.898509,19.5631429 323.800757,19.5631429 323.542218,19.5631429 C321.405387,19.5631429 319.307839,19.4600714 316.439241,19.4600714 C315.786041,19.4600714 314.12335,19.5631429 313.114773,19.5631429 C313.053564,19.5631429 312.996923,19.3616429 312.996923,19.24 C312.996923,19.0784286 313.034379,18.8992143 313.114773,18.8992143 C314.833191,18.8175 315.310986,18.6364286 315.310986,16.7857857 L315.310986,7.41185714 L315.310073,7.41185714 Z M307.003929,17.771 C307.003929,19.2613571 307.991494,19.2613571 309.219327,19.2613571 L309.340831,19.3607143 L309.340831,19.6829286 C309.340831,19.9252857 309.239425,19.9252857 308.923331,19.9252857 C308.527757,19.9252857 307.559377,19.8231429 306.173497,19.8231429 C305.083613,19.8231429 303.380725,19.9252857 302.909325,19.9252857 C302.865474,19.7822857 302.829845,19.6829286 302.829845,19.5631429 C302.829845,19.5018571 302.849943,19.3811429 302.909325,19.3402857 L303.107569,19.2613571 L303.345096,19.2613571 C305.144822,19.2613571 305.223388,18.6364286 305.223388,16.9677857 L305.223388,7.43321429 L305.16492,6.50928571 L302.513751,6.50928571 C301.009107,6.50928571 300.768839,7.47407143 300.395191,8.76107143 C300.357735,8.88178571 300.275514,8.94214286 300.15675,8.94214286 C299.877199,8.94214286 299.704535,8.86135714 299.704535,8.7425 C299.704535,8.39892857 299.940235,6.52971429 299.940235,4.93907143 C299.940235,4.86014286 300.217045,4.86014286 300.493856,4.86014286 C301.127871,5.72557143 301.324288,5.72557143 302.174818,5.72557143 L309.535421,5.72557143 C310.920387,5.72557143 311.317789,5.30214286 311.813855,4.67907143 C311.953631,4.67907143 312.404932,4.67907143 312.404932,4.86014286 C312.404932,5.02171429 312.010272,6.669 311.970988,8.11942857 C311.970988,8.33764286 311.907952,8.76014286 311.813855,8.76014286 C311.633882,8.76014286 311.180754,8.66264286 311.180754,8.56142857 L311.102187,7.55392857 C311.019966,6.52971429 310.546739,6.50928571 309.734578,6.50928571 L307.003929,6.50928571 L307.003929,17.771 Z M292.593335,12.2404286 C291.162691,11.3740714 290.588971,10.569 290.588971,9.00342857 C290.588971,6.487 292.607039,5.08021429 295.27922,5.08021429 C296.031998,5.08021429 297.100871,5.34021429 297.775083,5.64292857 L297.913031,8.15842857 L297.913031,8.25685714 C297.913031,8.359 297.713874,8.39707143 297.435236,8.39707143 C297.177611,8.39707143 297.141981,8.27728571 297.120969,8.07764286 C296.982107,6.73028571 296.032912,5.86207143 294.62602,5.86207143 C293.283078,5.86207143 292.232477,6.82778571 292.232477,8.11757143 C292.232477,9.56428571 293.104932,10.127 295.082803,11.193 C297.045143,12.2404286 298.746204,13.1634286 298.746204,15.678 C298.746204,18.4163571 296.306982,19.8417143 293.837612,19.8417143 C293.024538,19.8417143 291.678855,19.5817143 290.926077,19.2585714 C290.768943,19.1787143 290.709562,18.9168571 290.649266,18.4748571 L290.410826,16.5842857 C290.410826,16.4635714 290.808227,16.4635714 290.926077,16.4635714 C290.99094,16.4635714 291.046668,16.5025714 291.084124,16.6446429 C291.540907,18.1721429 292.572323,19.0570714 294.15462,19.0570714 C295.539586,19.0570714 296.863344,17.8304286 296.863344,16.4645 C296.863344,15.1552143 296.133404,14.3724286 295.104729,13.7484286 L292.593335,12.2404286 Z M285.437371,5.3625 C286.04946,5.3625 286.680735,5.421 287.31475,5.421 C287.81173,5.421 288.325154,5.3625 288.819393,5.3625 C289.115389,5.3625 289.175684,5.4405 289.175684,5.50364286 L289.175684,5.824 C289.175684,5.96328571 289.115389,6.06542857 289.034081,6.06542857 C288.89796,6.06542857 288.680531,6.02364286 288.44209,6.02364286 C287.29191,6.02364286 287.29191,6.60771429 287.29191,7.91607143 C287.29191,9.06192857 287.511166,16.5842857 287.511166,17.6902143 C287.511166,18.252 287.789804,18.8973571 288.640334,18.8973571 C289.43331,18.8973571 289.527407,18.9382143 289.527407,19.1202143 C289.527407,19.3616429 289.412298,19.5622143 289.353829,19.5622143 C288.302315,19.5622143 287.47371,19.4600714 286.641451,19.4600714 C285.810106,19.4600714 284.960489,19.5622143 284.109046,19.5622143 C283.96927,19.5622143 283.951912,19.4814286 283.951912,19.3616429 L283.951912,19.1592143 C283.951912,18.9586429 284.129144,18.8982857 285.039056,18.8982857 C285.437371,18.8982857 285.790008,18.4154286 285.790008,17.7106429 C285.790008,15.5396429 285.713268,10.8522143 285.631961,7.41278571 C285.553394,7.39421429 285.572579,7.39421429 285.572579,7.39421429 C284.465337,9.70635714 283.021902,13.065 282.350431,14.8562143 L280.485842,19.8240714 C280.469398,19.8825714 280.409103,19.9429286 280.30861,19.9429286 C280.212686,19.9429286 280.130465,19.8417143 280.07291,19.5622143 C279.949579,19.0589286 279.782396,18.5677143 279.576844,18.0932143 L275.836704,8.84 C275.696928,8.49735714 275.579991,8.25685714 275.504165,8.25685714 C275.419204,8.25685714 275.419204,8.658 275.419204,8.88178571 C275.419204,10.4705714 275.185331,16.5425 275.185331,17.5305 C275.185331,18.3940714 275.185331,18.8982857 276.926588,18.8982857 C277.045352,18.8982857 277.064537,18.9976429 277.064537,19.2390714 C277.064537,19.3189286 277.045352,19.5622143 276.964958,19.5622143 C276.68632,19.5622143 275.718854,19.4600714 274.649981,19.4600714 C273.524467,19.4600714 272.415398,19.5622143 272.135847,19.5622143 C272.078292,19.5622143 272.017083,19.5 272.017083,19.3987857 L272.017083,19.0988571 C272.017083,18.9177857 272.176957,18.8982857 272.415398,18.8982857 C274.036065,18.8982857 274.273592,18.395 274.273592,16.6437143 C274.273592,15.6585 274.607043,8.25685714 274.607043,7.53257143 C274.607043,6.46657143 274.095446,6.02364286 272.317647,6.02364286 C272.256438,6.02364286 272.215327,5.92521429 272.215327,5.80264286 L272.215327,5.54264286 C272.215327,5.4405 272.275622,5.3625 272.377028,5.3625 C273.126153,5.3625 273.839648,5.46185714 274.629883,5.46185714 C275.123208,5.46185714 275.63846,5.3625 276.134526,5.3625 C276.275215,5.3625 276.414077,5.68471429 276.509088,5.94564286 L280.784578,16.3437857 L280.878676,16.3437857 L285.437371,5.3625 Z M257.723426,12.0779286 L256.560456,15.8897143 C256.350336,16.588 256.247103,17.2064286 256.247103,17.6354286 C256.247103,18.5222143 257.483158,18.7097857 258.202135,18.7097857 C258.436921,18.7097857 258.491735,18.8704286 258.491735,19.2167857 C258.491735,19.4888571 258.463415,19.5947143 258.278874,19.5947143 C257.67318,19.5947143 255.744642,19.4591429 255.027492,19.4591429 C254.320392,19.4591429 253.207668,19.5947143 252.414693,19.5947143 C251.884824,19.5947143 251.884824,19.5157857 251.884824,19.1657143 L251.884824,18.8704286 C251.884824,18.7357857 252.123265,18.6828571 252.759107,18.6280714 C254.134024,18.4952857 254.320392,18.2250714 254.823767,16.7495714 L260.049366,1.28885714 C260.576493,0.832 261.127374,0.213571429 261.788796,0 L268.419459,16.991 C268.868934,18.1182857 269.344902,18.6828571 270.873298,18.6828571 C271.166553,18.6828571 271.215886,19.0041429 271.215886,19.3003571 C271.215886,19.5947143 271.035913,19.5947143 270.717992,19.5947143 C270.293184,19.5947143 268.606741,19.4591429 267.57167,19.4591429 C266.520155,19.4591429 265.460418,19.5148571 264.405249,19.5947143 C264.011502,19.5947143 263.981355,19.5157857 263.981355,19.1378571 C263.981355,18.8435 264.139402,18.7097857 264.513964,18.7097857 C264.911365,18.7097857 266.204061,18.6280714 266.204061,17.9845714 C266.204061,17.771 266.099915,17.3392143 265.723526,16.4004286 L264.033428,12.0779286 L257.723426,12.0779286 Z M263.561114,11.0323571 L260.632221,3.35307143 L260.57558,3.35307143 L258.067841,11.0323571 L263.561114,11.0323571 Z M232.817784,7.83528571 C232.817784,7.43228571 232.794031,7.332 232.717291,7.17135714 C232.539146,6.82778571 231.665777,6.10628571 231.332325,6.08492857 L230.282638,6.02364286 C230.204984,6.02364286 230.180318,5.824 230.180318,5.66335714 C230.180318,5.56121429 230.180318,5.40242857 230.281724,5.40242857 C230.894727,5.40242857 231.370695,5.3625 231.864934,5.3625 C232.773019,5.3625 234.220108,5.4405 234.573658,5.48321429 L240.57122,12.8421429 C241.583452,14.1059286 242.659633,15.3149286 243.796109,16.4635714 L243.875589,16.4635714 L243.875589,7.61335714 C243.875589,6.28921429 243.401448,6.08492857 242.767433,6.06635714 L241.917817,6.02457143 C241.837423,6.02457143 241.797226,5.82492857 241.797226,5.68564286 C241.797226,5.56307143 241.861176,5.36342857 241.978112,5.36342857 C242.411143,5.36342857 243.439818,5.46278571 244.410939,5.46278571 C245.30258,5.46278571 246.249034,5.36342857 246.807223,5.36342857 C246.906802,5.36342857 246.925073,5.44142857 246.925073,5.525 L246.925073,5.90478571 C246.925073,6.006 246.886704,6.0255 246.748755,6.0255 L246.231677,6.0255 C244.866809,6.0255 244.866809,6.73121429 244.866809,8.43978571 L244.866809,20.0840714 L244.389014,20.0840714 L233.70577,7.67557143 L233.70577,16.9083571 C233.70577,18.6355 233.93873,18.8379286 235.645271,18.8992143 C235.725665,18.8992143 235.781393,19.0793571 235.781393,19.24 C235.781393,19.4006429 235.764035,19.5631429 235.704653,19.5631429 C235.324609,19.5631429 234.061147,19.461 233.228889,19.461 C232.261422,19.461 231.824737,19.5631429 230.912998,19.5631429 C230.796062,19.5631429 230.774136,19.4201429 230.774136,19.1592143 C230.774136,18.9781429 230.796062,18.8992143 231.029935,18.8992143 C231.864021,18.8992143 232.81687,18.6986429 232.81687,17.6725714 L232.81687,7.83528571 L232.817784,7.83528571 Z M220.260816,13.9285714 L219.390187,16.7857857 C219.23214,17.3076429 219.15266,17.771 219.15266,18.0932143 C219.15266,18.7562143 220.083584,18.8982857 220.617107,18.8982857 C220.795252,18.8982857 220.833622,19.0180714 220.833622,19.279 C220.833622,19.4805 220.816264,19.5622143 220.678316,19.5622143 C220.22336,19.5622143 218.776271,19.4600714 218.240921,19.4600714 C217.710139,19.4600714 216.880621,19.5622143 216.285889,19.5622143 C215.889402,19.5622143 215.889402,19.5 215.889402,19.2381429 L215.889402,19.0180714 C215.889402,18.9177857 216.066634,18.876 216.540774,18.837 C217.568536,18.7357857 217.709226,18.5352143 218.086528,17.4292857 L222.000246,5.84442857 C222.398561,5.50364286 222.81332,5.03935714 223.309387,4.87685714 L228.275533,17.6094286 C228.612638,18.4535 228.966189,18.876 230.117282,18.876 C230.333797,18.876 230.372167,19.1202143 230.372167,19.3402857 C230.372167,19.5631429 230.234218,19.5631429 229.994864,19.5631429 C229.679684,19.5631429 228.413481,19.4591429 227.641518,19.4591429 C226.851283,19.4591429 226.057394,19.5 225.268073,19.5622143 C224.972991,19.5622143 224.949238,19.5 224.949238,19.2167857 C224.949238,18.9976429 225.069829,18.8982857 225.347553,18.8982857 C225.645375,18.8982857 226.611928,18.837 226.611928,18.3532143 C226.611928,18.1944286 226.534275,17.8722143 226.255638,17.1674286 L224.991262,13.9285714 L220.260816,13.9285714 Z M224.631317,13.1457857 L222.43419,7.39421429 L222.39582,7.39421429 L220.517528,13.1457857 L224.631317,13.1457857 Z M206.383745,6.708 C206.168144,6.16571429 205.375168,6.02457143 204.82246,6.02457143 L204.703697,5.92614286 L204.703697,5.40242857 L204.922953,5.3625 C205.74973,5.3625 206.956551,5.46185714 207.395063,5.46185714 C208.304061,5.46185714 209.193875,5.3625 210.105614,5.3625 L210.166823,5.421 L210.105614,5.98464286 L209.175604,6.0645 C208.85951,6.08492857 208.505046,6.20471429 208.505046,6.50742857 C208.505046,6.66807143 208.602798,6.92992857 208.680451,7.111 L210.955231,13.1467143 L212.244272,16.1432143 C212.37948,16.4431429 212.402319,16.5025714 212.460788,16.5025714 C212.502812,16.5025714 212.56128,16.4217857 212.639847,16.1812857 L215.468248,8.55957143 C215.784342,7.69321429 216.020955,6.95035714 216.004511,6.708 C215.983499,6.36814286 215.88392,6.18707143 215.311114,6.12578571 L214.282439,6.02457143 L214.163675,5.96514286 L214.163675,5.33928571 C214.934725,5.33928571 215.705775,5.46092857 216.476825,5.46092857 C217.090741,5.46092857 218.398055,5.33928571 218.536003,5.33928571 L218.692223,5.42007143 L218.692223,5.88435714 L218.515905,6.02364286 L217.902902,6.06357143 C217.5055,6.084 217.349281,6.28642857 217.071556,6.99121429 C215.191437,11.5969286 214.738308,13.0427143 213.232751,16.9269286 L212.22052,19.539 C212.125509,19.8231429 212.084398,19.8407857 211.944623,19.8407857 C211.768304,19.8407857 211.727194,19.7813571 211.688824,19.7015 L206.383745,6.70707143 L206.383745,6.708 Z M193.022839,17.4079286 C193.022839,18.8982857 194.013145,18.8982857 195.240978,18.8982857 L195.357001,18.9967143 L195.357001,19.3189286 C195.357001,19.5622143 195.257422,19.5622143 194.942242,19.5622143 C194.546668,19.5622143 193.577374,19.4600714 192.195148,19.4600714 C191.103437,19.4600714 189.404203,19.5622143 188.925495,19.5622143 C188.888952,19.4192143 188.847842,19.3189286 188.847842,19.2000714 C188.847842,19.1378571 188.86794,19.0171429 188.925495,18.9772143 L189.125566,18.8982857 L189.363093,18.8982857 C191.162818,18.8982857 191.241385,18.2724286 191.241385,16.6047143 L191.241385,7.07014286 L191.18109,6.14528571 L188.531748,6.14528571 C187.02619,6.14528571 186.792318,7.111 186.415928,8.39707143 C186.375731,8.51871429 186.295337,8.57814286 186.17566,8.57814286 C185.900677,8.57814286 185.718877,8.49828571 185.718877,8.3785 C185.718877,8.03585714 185.960059,6.16571429 185.960059,4.57507143 C185.960059,4.49614286 186.236869,4.49614286 186.510939,4.49614286 C187.146781,5.3625 187.342284,5.3625 188.195555,5.3625 L195.556158,5.3625 C196.942038,5.3625 197.335785,4.93814286 197.833679,4.31507143 C197.970714,4.31507143 198.427497,4.31507143 198.427497,4.49614286 C198.427497,4.65771429 198.031923,6.30592857 197.988985,7.75542857 C197.988985,7.97457143 197.932344,8.39707143 197.833679,8.39707143 C197.656447,8.39707143 197.199664,8.29864286 197.199664,8.19742857 L197.11927,7.18992857 C197.040703,6.16571429 196.563822,6.14528571 195.752575,6.14528571 L193.021926,6.14528571 L193.021926,17.4079286 L193.022839,17.4079286 Z M182.726948,15.8395714 C182.726948,18.7766429 182.788157,18.7970714 184.726744,18.8982857 L184.821755,19.0394286 L184.821755,19.4192143 C184.821755,19.5399286 184.527587,19.5622143 184.349441,19.5622143 C184.070804,19.5622143 182.747046,19.4600714 181.937627,19.4600714 C180.984777,19.4600714 180.01731,19.5622143 178.988635,19.5622143 C178.910068,19.5204286 178.888143,19.3997143 178.888143,19.2000714 C178.910068,18.9391429 178.947524,18.8982857 179.523071,18.8982857 C180.887939,18.8982857 180.946407,18.5965 180.946407,17.0671429 L180.946407,7.45271429 C180.946407,6.30592857 180.611128,6.02364286 178.947524,6.02364286 L178.888143,5.92614286 L178.850686,5.60114286 C178.868958,5.38107143 179.04619,5.3625 179.16678,5.3625 C179.701217,5.3625 180.333404,5.46092857 181.67726,5.46092857 C182.667566,5.46092857 183.854289,5.3625 184.64635,5.3625 L184.745016,5.50364286 L184.745016,5.86207143 L184.667362,5.98371429 L184.132926,6.02364286 C183.339951,6.084 182.726948,6.16571429 182.726948,7.09242857 L182.726948,15.8395714 Z M167.906163,7.41185714 C167.906163,6.10628571 166.936869,5.96328571 165.78943,5.96328571 C165.709036,5.96328571 165.709036,5.86207143 165.709036,5.78407143 L165.709036,5.56121429 C165.709036,5.38107143 166.045229,5.3625 166.740453,5.3625 C167.531601,5.3625 168.421414,5.46092857 169.251846,5.46092857 C170.043908,5.46092857 170.83597,5.3625 171.628032,5.3625 L175.801202,5.3625 C175.960163,5.3625 175.980261,5.54171429 175.980261,5.76271429 L175.980261,8.21785714 C175.980261,8.29864286 175.941892,8.37942857 175.839572,8.37942857 C175.685179,8.37942857 175.366345,8.398 175.345333,8.15842857 L175.287778,7.5335 C175.167187,6.2465 174.300213,6.02457143 173.189316,6.02457143 L171.152064,6.02457143 C170.043908,6.02457143 169.686704,6.26692857 169.686704,7.79442857 L169.686704,11.4362857 C169.686704,11.4957143 169.806381,11.5978571 169.844751,11.5978571 L172.179826,11.518 C173.367462,11.4762143 173.703654,11.0955 174.001477,10.0267143 C174.042587,9.90692857 174.100142,9.86514286 174.316657,9.86514286 C174.455519,9.86514286 174.554184,9.88928571 174.554184,9.98771429 C174.554184,10.4111429 174.437248,11.336 174.437248,11.999 C174.437248,13.0854286 174.553271,13.6685714 174.553271,14.0102857 C174.553271,14.131 174.357768,14.2517143 174.239004,14.2517143 C174.080044,14.2517143 173.942095,14.1913571 173.900985,13.9889286 C173.805974,13.4494286 173.805974,13.0659286 173.703654,12.7845714 C173.604076,12.4827857 173.367462,12.3416429 172.777298,12.3202857 L169.964428,12.2617857 C169.686704,12.2617857 169.686704,12.3602143 169.686704,12.5004286 L169.686704,17.2909286 C169.686704,18.7376429 170.736391,18.7775714 172.101259,18.7775714 L173.168304,18.7775714 C174.217992,18.7775714 174.951586,18.7562143 175.445825,18.4544286 C175.884337,18.1944286 176.494599,16.9687143 176.712941,16.4654286 C176.970567,16.4654286 177.306759,16.5248571 177.306759,16.6650714 C177.306759,16.7263571 177.249205,16.8860714 177.208094,16.9872857 L176.652646,19.019 C176.494599,19.5631429 176.39502,19.5631429 176.138308,19.5631429 C174.001477,19.5631429 171.902102,19.4600714 169.03259,19.4600714 C168.383045,19.4600714 166.718527,19.5631429 165.709036,19.5631429 C165.651482,19.5631429 165.588446,19.3616429 165.588446,19.24 C165.588446,19.0784286 165.632297,18.8992143 165.709036,18.8992143 C167.430195,18.8175 167.906163,18.6364286 167.906163,16.7857857 L167.906163,7.41185714 Z M159.342393,17.4079286 C159.342393,18.8982857 160.329958,18.8982857 161.557791,18.8982857 L161.677469,18.9967143 L161.677469,19.3189286 C161.677469,19.5622143 161.576976,19.5622143 161.262709,19.5622143 C160.866222,19.5622143 159.894187,19.4600714 158.511048,19.4600714 C157.422991,19.4600714 155.721017,19.5622143 155.245049,19.5622143 C155.206679,19.4192143 155.167396,19.3189286 155.167396,19.2000714 C155.167396,19.1378571 155.187494,19.0171429 155.245049,18.9772143 L155.446033,18.8982857 L155.679906,18.8982857 C157.482372,18.8982857 157.560026,18.2724286 157.560026,16.6047143 L157.560026,7.07014286 L157.502471,6.14528571 L154.849475,6.14528571 C153.343004,6.14528571 153.110044,7.111 152.731828,8.39707143 C152.692545,8.51871429 152.613978,8.57814286 152.493387,8.57814286 C152.219317,8.57814286 152.040258,8.49828571 152.040258,8.3785 C152.040258,8.03585714 152.277786,6.16571429 152.277786,4.57507143 C152.277786,4.49614286 152.554596,4.49614286 152.82958,4.49614286 C153.464508,5.3625 153.662752,5.3625 154.512369,5.3625 L161.874799,5.3625 C163.257938,5.3625 163.653512,4.93814286 164.149579,4.31507143 C164.286614,4.31507143 164.743397,4.31507143 164.743397,4.49614286 C164.743397,4.65771429 164.346909,6.30592857 164.308539,7.75542857 C164.308539,7.97457143 164.250071,8.39707143 164.150492,8.39707143 C163.972347,8.39707143 163.515564,8.29864286 163.515564,8.19742857 L163.437911,7.18992857 C163.357517,6.16571429 162.88429,6.14528571 162.071216,6.14528571 L159.34148,6.14528571 L159.34148,17.4079286 L159.342393,17.4079286 Z M148.666458,15.8395714 C148.666458,18.7766429 148.727667,18.7970714 150.665341,18.8982857 L150.765834,19.0394286 L150.765834,19.4192143 C150.765834,19.5399286 150.467097,19.5622143 150.290779,19.5622143 C150.011228,19.5622143 148.686557,19.4600714 147.874396,19.4600714 C146.926115,19.4600714 145.955907,19.5622143 144.927232,19.5622143 C144.848665,19.5204286 144.82948,19.3997143 144.82948,19.2000714 C144.848665,18.9391429 144.887948,18.8982857 145.463495,18.8982857 C146.82745,18.8982857 146.885918,18.5965 146.885918,17.0671429 L146.885918,7.45271429 C146.885918,6.30592857 146.549725,6.02364286 144.887948,6.02364286 L144.82948,5.92614286 L144.789283,5.60114286 C144.809382,5.38107143 144.986614,5.3625 145.105377,5.3625 C145.640727,5.3625 146.272001,5.46092857 147.618598,5.46092857 C148.609817,5.46092857 149.794713,5.3625 150.587688,5.3625 L150.687267,5.50364286 L150.687267,5.86207143 L150.607787,5.98371429 L150.07061,6.02364286 C149.280375,6.084 148.666458,6.16571429 148.666458,7.09242857 L148.666458,15.8395714 Z M136.851306,12.2404286 C135.42797,11.3740714 134.855164,10.569 134.855164,9.00342857 C134.855164,6.487 136.874146,5.08021429 139.542673,5.08021429 C140.294538,5.08021429 141.36341,5.34021429 142.036708,5.64292857 L142.176484,8.15842857 L142.176484,8.25685714 C142.176484,8.359 141.976413,8.39707143 141.700516,8.39707143 C141.441977,8.39707143 141.40452,8.27728571 141.383508,8.07764286 C141.244646,6.73028571 140.294538,5.86207143 138.889473,5.86207143 C137.54379,5.86207143 136.495929,6.82778571 136.495929,8.11757143 C136.495929,9.56428571 137.365644,10.127 139.344429,11.193 C141.303115,12.2404286 143.005089,13.1634286 143.005089,15.678 C143.005089,18.4163571 140.572262,19.8417143 138.098324,19.8417143 C137.286164,19.8417143 135.941394,19.5817143 135.190443,19.2585714 C135.03331,19.1787143 134.971187,18.9168571 134.912719,18.4748571 L134.676105,16.5842857 C134.676105,16.4635714 135.070766,16.4635714 135.190443,16.4635714 C135.248911,16.4635714 135.308293,16.5025714 135.34849,16.6446429 C135.802532,18.1721429 136.832122,19.0570714 138.415332,19.0570714 C139.801212,19.0570714 141.125883,17.8304286 141.125883,16.4645 C141.125883,15.1552143 140.39503,14.3724286 139.364527,13.7484286 L136.85222,12.2404286 L136.851306,12.2404286 Z M122.505576,7.53257143 C122.505576,6.52878571 122.467206,6.02364286 121.221102,6.02364286 L120.409855,6.02364286 C120.290178,6.02364286 120.27008,5.80357143 120.27008,5.64292857 C120.27008,5.54171429 120.328548,5.36157143 120.409855,5.36157143 C121.556381,5.36157143 122.723918,5.421 123.870444,5.421 C124.782183,5.421 125.671997,5.36157143 126.583736,5.36157143 C128.60089,5.36157143 130.578761,6.73028571 130.578761,8.84 C130.578761,10.6692857 128.936169,11.8968571 127.394982,12.1392143 L127.394982,12.1782143 C128.164205,12.3592857 128.977279,13.8282857 129.173696,14.1486429 L131.350724,17.5295714 C132.045035,18.5974286 132.499991,18.798 133.686713,18.8574286 L133.805477,18.9772143 L133.805477,19.3607143 C133.805477,19.539 133.666615,19.5622143 133.587134,19.5622143 C133.172375,19.5622143 132.558459,19.5 132.262463,19.5 C131.787409,19.5 131.309614,19.5622143 130.8373,19.5622143 C130.382344,19.5622143 129.492531,18.213 128.322252,16.1023571 C127.038692,13.7874286 126.285,12.5199286 124.980427,12.5199286 C124.821466,12.5199286 124.583939,12.5199286 124.286117,12.5617143 L124.286117,17.4905714 C124.286117,18.213 124.286117,18.8973571 125.276422,18.8973571 C126.028287,18.8973571 126.363566,18.8973571 126.363566,19.0561429 C126.363566,19.4387143 126.306925,19.5622143 126.009103,19.5622143 C124.980427,19.5622143 124.129897,19.4600714 123.279367,19.4600714 C122.941347,19.4600714 120.743307,19.5622143 120.468323,19.5622143 C120.348646,19.5622143 120.309363,19.3003571 120.309363,19.1378571 C120.309363,18.9586429 120.38793,18.9177857 120.785331,18.8973571 C122.150199,18.837 122.505576,18.6355 122.505576,17.2463571 L122.505576,7.53257143 Z M124.286117,11.817 C124.544656,11.8374286 124.782183,11.8587857 125.037982,11.8587857 C126.621192,11.8587857 128.60089,11.2942143 128.60089,8.92078571 C128.60089,7.15278571 127.413254,6.00507143 125.671997,6.00507143 C124.327227,6.00507143 124.286117,6.32542857 124.286117,6.929 L124.286117,11.817 Z M109.799697,7.41185714 C109.799697,6.10628571 108.828576,5.96328571 107.682964,5.96328571 C107.603484,5.96328571 107.603484,5.86207143 107.603484,5.78407143 L107.603484,5.56121429 C107.603484,5.38107143 107.938763,5.3625 108.633987,5.3625 C109.425135,5.3625 110.314948,5.46092857 111.14538,5.46092857 C111.938356,5.46092857 112.727677,5.3625 113.520652,5.3625 L117.69565,5.3625 C117.853697,5.3625 117.873795,5.54171429 117.873795,5.76271429 L117.873795,8.21785714 C117.873795,8.29864286 117.834512,8.37942857 117.73402,8.37942857 C117.576886,8.37942857 117.260792,8.398 117.240694,8.15842857 L117.182226,7.5335 C117.061635,6.2465 116.19192,6.02457143 115.082851,6.02457143 L113.045598,6.02457143 C111.938356,6.02457143 111.581151,6.26692857 111.581151,7.79442857 L111.581151,11.4362857 C111.581151,11.4957143 111.699915,11.5978571 111.739198,11.5978571 L114.07336,11.518 C115.260996,11.4762143 115.597188,11.0955 115.895011,10.0267143 C115.934294,9.90692857 115.992762,9.86514286 116.210191,9.86514286 C116.349053,9.86514286 116.449546,9.88928571 116.449546,9.98771429 C116.449546,10.4111429 116.330782,11.336 116.330782,11.999 C116.330782,13.0854286 116.449546,13.6685714 116.449546,14.0102857 C116.449546,14.131 116.252215,14.2517143 116.131625,14.2517143 C115.973578,14.2517143 115.835629,14.1913571 115.796346,13.9889286 C115.697681,13.4494286 115.697681,13.0659286 115.597188,12.7845714 C115.499437,12.4827857 115.261909,12.3416429 114.669005,12.3202857 L111.857962,12.2617857 C111.581151,12.2617857 111.581151,12.3602143 111.581151,12.5004286 L111.581151,17.2909286 C111.581151,18.7376429 112.629925,18.7775714 113.995707,18.7775714 L115.064579,18.7775714 C116.11244,18.7775714 116.84512,18.7562143 117.339359,18.4544286 C117.774217,18.1944286 118.388133,16.9687143 118.605562,16.4654286 C118.863188,16.4654286 119.19938,16.5248571 119.19938,16.6650714 C119.19938,16.7263571 119.139998,16.8860714 119.101628,16.9872857 L118.545266,19.019 C118.388133,19.5631429 118.289468,19.5631429 118.032756,19.5631429 C115.895011,19.5631429 113.796549,19.4600714 110.926124,19.4600714 C110.274751,19.4600714 108.612061,19.5631429 107.603484,19.5631429 C107.544102,19.5631429 107.48472,19.3616429 107.48472,19.24 C107.48472,19.0784286 107.524004,18.8992143 107.603484,18.8992143 C109.324643,18.8175 109.799697,18.6364286 109.799697,16.7857857 L109.799697,7.41185714 Z M94.4746237,6.708 C94.2571949,6.16571429 93.4669601,6.02457143 92.9124254,6.02457143 L92.7927483,5.92614286 L92.7927483,5.40242857 L93.0110906,5.3625 C93.8415223,5.3625 95.0483433,5.46185714 95.4822872,5.46185714 C96.3949399,5.46185714 97.2838398,5.3625 98.1955789,5.3625 L98.2531336,5.421 L98.1964925,5.98464286 L97.2646549,6.0645 C96.948561,6.08492857 96.5922702,6.20471429 96.5922702,6.50742857 C96.5922702,6.66807143 96.6918489,6.92992857 96.769502,7.111 L99.0461091,13.1467143 L100.33241,16.1432143 C100.471272,16.4431429 100.490457,16.5025714 100.549839,16.5025714 C100.589122,16.5025714 100.648504,16.4217857 100.727071,16.1812857 L103.557299,8.55957143 C103.874307,7.69321429 104.111834,6.95035714 104.091735,6.708 C104.073464,6.36814286 103.974799,6.18707143 103.399252,6.12578571 L102.370577,6.02457143 L102.251813,5.96514286 L102.251813,5.33928571 C103.023776,5.33928571 103.794826,5.46092857 104.565876,5.46092857 C105.18162,5.46092857 106.486192,5.33928571 106.624141,5.33928571 L106.784015,5.42007143 L106.784015,5.88435714 L106.60587,6.02364286 L105.991039,6.06357143 C105.596379,6.084 105.437418,6.28642857 105.159694,6.99121429 C103.279575,11.5969286 102.824619,13.0427143 101.321803,16.9269286 L100.312312,19.539 C100.213647,19.8231429 100.175277,19.8407857 100.035501,19.8407857 C99.8564423,19.8407857 99.8180725,19.7813571 99.7787892,19.7015 L94.4746237,6.70707143 L94.4746237,6.708 Z M89.5678595,15.8395714 C89.5678595,18.7766429 89.6272413,18.7970714 91.5658288,18.8982857 L91.664494,19.0394286 L91.664494,19.4192143 C91.664494,19.5399286 91.3694121,19.5622143 91.1903531,19.5622143 C90.9135426,19.5622143 89.5870444,19.4600714 88.7767112,19.4600714 C87.8256887,19.4600714 86.856395,19.5622143 85.8277194,19.5622143 C85.7491527,19.5204286 85.7290542,19.3997143 85.7290542,19.2000714 C85.7491527,18.9391429 85.7884361,18.8982857 86.3621556,18.8982857 C87.7270236,18.8982857 87.7873189,18.5965 87.7873189,17.0671429 L87.7873189,7.45271429 C87.7873189,6.30592857 87.4492994,6.02364286 85.7884361,6.02364286 L85.7290542,5.92614286 L85.6897709,5.60114286 C85.7080422,5.38107143 85.8871012,5.3625 86.0049512,5.3625 C86.5421282,5.3625 87.174316,5.46092857 88.5190855,5.46092857 C89.5084777,5.46092857 90.6970274,5.3625 91.4863486,5.3625 L91.5868409,5.50364286 L91.5868409,5.86207143 L91.5073606,5.98371429 L90.9747515,6.02364286 C90.1808624,6.084 89.5678595,6.16571429 89.5678595,7.09242857 L89.5678595,15.8395714 Z M69.3159235,5.3625 C70.2276626,5.3625 71.6720108,5.4405 72.0273881,5.48321429 L78.0240367,12.8421429 C79.0353545,14.1068571 80.1124491,15.3158571 81.2507526,16.4635714 L81.3284058,16.4635714 L81.3284058,7.61335714 C81.3284058,6.28921429 80.8533513,6.08492857 80.2193364,6.06635714 L79.3697198,6.02457143 C79.2893259,6.02457143 79.2500426,5.82492857 79.2500426,5.68564286 C79.2500426,5.56307143 79.3094244,5.36342857 79.4272744,5.36342857 C79.8648727,5.36342857 80.8926347,5.46278571 81.8619284,5.46278571 C82.7517419,5.46278571 83.7027644,5.36342857 84.2572991,5.36342857 C84.3541371,5.36342857 84.3760627,5.44142857 84.3760627,5.525 L84.3760627,5.90478571 C84.3760627,6.006 84.3349522,6.0255 84.1979173,6.0255 L83.6835795,6.0255 C82.3701419,6.0255 82.3214961,6.67990721 82.3196944,8.25405633 L82.3196251,20.0840714 L81.84183,20.0840714 L71.157673,7.67557143 L71.157673,16.9083571 C71.157673,18.6355 71.3942867,18.8379286 73.0962605,18.8992143 C73.1757408,18.8992143 73.2360362,19.0793571 73.2360362,19.24 C73.2360362,19.4006429 73.2141106,19.5631429 73.1565559,19.5631429 C72.7801666,19.5631429 71.5121367,19.461 70.6835321,19.461 C69.7105841,19.461 69.2766402,19.5631429 68.3667282,19.5631429 C68.2479646,19.5631429 68.2287797,19.4201429 68.2287797,19.1592143 C68.2287797,18.9781429 68.2488782,18.8992143 68.4873189,18.8992143 C69.3159235,18.8992143 70.2669459,18.6986429 70.2669459,17.6725714 L70.2669459,7.83528571 C70.2669459,7.43228571 70.2468475,7.332 70.1664537,7.17135714 C69.9892218,6.82778571 69.1185932,6.10628571 68.7814873,6.08492857 L67.7327132,6.02364286 C67.653233,6.02364286 67.6358752,5.824 67.6358752,5.66335714 C67.6358752,5.56121429 67.6358752,5.40242857 67.7327132,5.40242857 C68.3466297,5.40242857 68.8216842,5.3625 69.3159235,5.3625 Z M68.6526744,0.641828571 L68.7577345,0.805257143 L68.7577345,1.36704286 L68.598774,1.53047143 C66.6720629,1.53047143 65.9859746,1.63818571 65.9859746,2.97904286 L65.9859746,12.5619 C65.9859746,17.4731143 63.1594007,19.9691143 58.3540424,19.9691143 C54.5234592,19.9691143 50.7476901,18.6013286 50.7476901,14.1200429 L50.7476901,3.64947143 C50.7476901,1.53047143 49.4796601,1.53047143 48.0280034,1.53047143 L47.8946227,1.4209 L47.8946227,0.9659 C47.8946227,0.668757143 48.0800767,0.641828571 48.3705907,0.641828571 C49.0575925,0.641828571 50.7476901,0.778328571 51.988313,0.778328571 C53.3084162,0.778328571 54.6559263,0.641828571 55.9769431,0.641828571 L56.0555098,0.7254 L56.0555098,1.4209 L55.9239563,1.53047143 L55.6069488,1.53047143 C53.8894443,1.53047143 53.1229622,1.71711429 53.1229622,3.73118571 L53.1229622,11.5172571 C53.1229622,15.3819714 53.8629509,18.4119 58.4061157,18.4119 C63.1329073,18.4119 64.6640443,16.1062571 64.6640443,11.5683286 L64.6640443,4.59011429 C64.6640443,1.53047143 64.6640443,1.74311429 62.3408454,1.53047143 L62.2348717,1.31597143 L62.2348717,0.805257143 L62.3152655,0.641828571 C62.7884929,0.641828571 63.3174477,0.778328571 65.2989728,0.778328571 C66.4080422,0.778328571 67.8076257,0.641828571 68.6526744,0.641828571 Z" id="Fill-3"></path>
                </g>
            </g>
        </g>
    </g>
</svg>