<svg xmlns="http://www.w3.org/2000/svg" width="288" height="48" viewBox="0 0 288 48">
  <g fill="none" fill-rule="evenodd">
    <path fill="#131516" d="M65.362621,20.8763865 L54.2875492,20.8763865 L54.2875492,18.1382292 C54.2875492,14.9815551 56.5129885,12.8598472 59.8242621,12.8598472 C63.1887575,12.8598472 65.362621,14.9319371 65.362621,18.1382292 L65.362621,20.8763865 Z M59.8242621,10.1254652 C55.0200348,10.1254652 51.5331841,13.495173 51.5331841,18.1382292 L51.5331841,30.3873978 C51.5331841,30.8544539 51.9178076,31.2330607 52.3935117,31.2330607 L53.4272216,31.2330607 C53.902377,31.2330607 54.2875492,30.8544539 54.2875492,30.3873978 L54.2875492,23.8426787 L65.362621,23.8426787 L65.362621,30.3873978 C65.362621,30.8544539 65.7472445,31.2330607 66.2223999,31.2330607 L67.2566585,31.2330607 C67.7318139,31.2330607 68.1169861,30.8544539 68.1169861,30.3873978 L68.1169861,18.1382292 C68.1169861,13.4207461 64.7074991,10.1254652 59.8242621,10.1254652 L59.8242621,10.1254652 Z"/>
    <path fill="#003741" d="M87.5310355 15.0406652C85.483368 15.0406652 83.7243054 15.8760809 82.5879926 17.3338787 81.4582639 15.8917213 79.673962 15.0406652 77.6400115 15.0406652 74.0280622 15.0406652 71.3038744 17.718418 71.3038744 21.2688L71.3038744 30.3866427C71.3038744 30.8531596 71.6890465 31.2317663 72.164202 31.2317663L73.2264432 31.2317663C73.7010499 31.2317663 74.0862221 30.8531596 74.0862221 30.3866427L74.0862221 21.2688C74.0862221 19.2123506 75.5479011 17.7761258 77.6400115 17.7761258 79.7496797 17.7761258 81.2223322 19.2123506 81.2223322 21.2688L81.2223322 30.3866427C81.2223322 30.8531596 81.6075044 31.2317663 82.0826598 31.2317663L83.1158211 31.2317663C83.5909765 31.2317663 83.9761487 30.8531596 83.9761487 30.3866427L83.9761487 21.2688C83.9761487 19.2123506 85.4383764 17.7761258 87.5310355 17.7761258 89.6396063 17.7761258 91.1122589 19.2123506 91.1122589 21.2688L91.1122589 30.3866427C91.1122589 30.8531596 91.497431 31.2317663 91.9725865 31.2317663L93.0068451 31.2317663C93.4825492 31.2317663 93.8671727 30.8531596 93.8671727 30.3866427L93.8671727 21.2688C93.8671727 17.6596315 91.2027908 15.0406652 87.5310355 15.0406652M104.134151 21.4754697C100.786116 21.0138067 100.167207 20.5208629 100.15349 19.7161888 100.146357 19.3402787 100.299987 18.9929528 100.609442 18.6839191 101.228899 18.0642337 102.387159 17.6937169 103.707279 17.6937169 105.185967 17.6937169 107.077261 18.1089978 107.689038 20.0877843 107.799871 20.4437393 108.133467 20.6869753 108.512055 20.6869753L109.574296 20.6869753C109.837662 20.6869753 110.086213 20.5688629 110.249171 20.3660764 110.412128 20.1638292 110.471934 19.8984809 110.41158 19.6466157 109.708174 16.7196944 107.254485 15.040773 103.679297 15.040773 99.5384215 15.040773 97.3711421 17.4003236 97.3711421 19.7474697 97.4397269 23.2379865 101.175129 23.7729978 103.724837 24.1381213 107.607833 24.6839191 107.960634 25.6077843 107.989714 26.4674697 108.027572 26.9674247 107.86681 27.4183011 107.531018 27.7672449 106.826516 28.482391 105.553582 28.9100764 104.125921 28.9100764 102.575356 28.9100764 99.8934163 28.5433348 99.3507735 26.0888629 99.2651797 25.700009 98.9151229 25.4222562 98.5101983 25.4222562L97.477037 25.4222562C97.224645 25.4222562 96.9854213 25.5312 96.8213664 25.719964 96.658409 25.9087281 96.5876295 26.1578966 96.6271343 26.4022112 97.1588036 29.6333124 99.972426 31.5619416 104.153903 31.5619416 106.398546 31.5619416 108.304106 30.8861663 109.524367 29.6543461 110.350676 28.8086831 110.804433 27.6065258 110.770415 26.3542112 110.769318 26.348818 110.769318 26.3423461 110.768769 26.3364135 110.57728 22.4214472 106.230651 21.7834247 104.134151 21.4754697M119.660321 18.1049528C120.135476 18.1049528 120.5201 17.7263461 120.5201 17.2598292L120.5201 16.2432C120.5201 15.7756045 120.135476 15.3975371 119.660321 15.3975371L116.636555 15.3975371 116.636555 13.2218966C116.636555 12.7553798 116.251931 12.376773 115.776776 12.376773L114.742517 12.376773C114.266813 12.376773 113.882189 12.7553798 113.882189 13.2218966L113.882189 15.3975371 112.787576 15.3975371C112.311323 15.3975371 111.9267 15.7756045 111.9267 16.2432L111.9267 17.2598292C111.9267 17.7263461 112.311323 18.1049528 112.787576 18.1049528L113.882189 18.1049528 113.882189 25.4980315C113.882189 27.4282787 114.48793 28.9923236 115.634119 30.0229753 116.538341 30.8357393 117.730619 31.2580315 119.10835 31.2580315 119.314105 31.2580315 119.524249 31.2477843 119.737684 31.2294472 120.181016 31.1900764 120.5201 30.8249528 120.5201 30.3870202L120.5201 29.4523685C120.5201 29.2220764 120.425178 29.0020315 120.255637 28.842391 120.087192 28.6832899 119.858942 28.602391 119.625754 28.6077843 118.662824 28.6460764 117.933081 28.4352 117.450793 27.9805483 116.778114 27.3457618 116.636555 26.2795146 116.636555 25.4980315L116.636555 18.1049528 119.660321 18.1049528zM148.143364 15.1012315C146.219149 14.8828045 144.481485 15.3045573 143.066444 16.3271191L143.066444 16.2440629C143.066444 15.7764674 142.681272 15.3984 142.206116 15.3984L141.144424 15.3984C140.669268 15.3984 140.284096 15.7764674 140.284096 16.2440629L140.284096 30.3873438C140.284096 30.8544 140.669268 31.2324674 141.144424 31.2324674L142.206116 31.2324674C142.681272 31.2324674 143.066444 30.8544 143.066444 30.3873438L143.066444 21.8460404C143.066444 20.5834787 143.542697 19.4417258 144.398635 18.6904449 145.194218 17.9321528 146.463311 17.5853663 147.969982 17.7169618 148.217436 17.7401528 148.449527 17.6581753 148.626201 17.4985348 148.804522 17.3378157 148.906027 17.1118382 148.906027 16.8745348L148.906027 15.9415011C148.906027 15.5111191 148.577917 15.1492315 148.143364 15.1012315M202.576094 15.0406652C200.529524 15.0406652 198.769912 15.8760809 197.633599 17.3338787 196.50442 15.8917213 194.719569 15.0406652 192.686167 15.0406652 189.073669 15.0406652 186.349481 17.718418 186.349481 21.2688L186.349481 30.3866427C186.349481 30.8531596 186.734653 31.2317663 187.209809 31.2317663L188.271501 31.2317663C188.746657 31.2317663 189.131829 30.8531596 189.131829 30.3866427L189.131829 21.2688C189.131829 19.2123506 190.592959 17.7761258 192.686167 17.7761258 194.794738 17.7761258 196.268488 19.2123506 196.268488 21.2688L196.268488 30.3866427C196.268488 30.8531596 196.653111 31.2317663 197.128267 31.2317663L198.161977 31.2317663C198.636583 31.2317663 199.021756 30.8531596 199.021756 30.3866427L199.021756 21.2688C199.021756 19.2123506 200.483983 17.7761258 202.576094 17.7761258 204.685213 17.7761258 206.157866 19.2123506 206.157866 21.2688L206.157866 30.3866427C206.157866 30.8531596 206.542489 31.2317663 207.018193 31.2317663L208.051903 31.2317663C208.527607 31.2317663 208.912231 30.8531596 208.912231 30.3866427L208.912231 21.2688C208.912231 17.6596315 206.247849 15.0406652 202.576094 15.0406652M235.159794 10.4819596L234.125536 10.4819596C233.65038 10.4819596 233.265208 10.8605663 233.265208 11.3270831L233.265208 23.5762517C233.265208 26.7825438 231.091345 28.8546337 227.727398 28.8546337 224.416124 28.8546337 222.190136 26.7329258 222.190136 23.5762517L222.190136 11.3270831C222.190136 10.8605663 221.805513 10.4819596 221.329809 10.4819596L220.296099 10.4819596C219.820943 10.4819596 219.435771 10.8605663 219.435771 11.3270831L219.435771 23.5762517C219.435771 28.2193079 222.922622 31.5890157 227.727398 31.5890157 232.610086 31.5890157 236.019573 28.2942742 236.019573 23.5762517L236.019573 11.3270831C236.019573 10.8605663 235.634401 10.4819596 235.159794 10.4819596M258.151775 9.98793708C255.819892 9.98793708 253.695958 11.1038022 252.390104 12.9294202 251.069435 11.1038022 248.949342 9.98793708 246.641053 9.98793708 242.700445 9.98793708 239.494518 13.139218 239.494518 17.0121169L239.494518 30.3873978C239.494518 30.8544539 239.880238 31.2325213 240.354845 31.2325213L241.389104 31.2325213C241.863711 31.2325213 242.248883 30.8544539 242.248883 30.3873978L242.248883 17.0121169C242.248883 14.6315326 244.219735 12.6948135 246.641053 12.6948135 249.047556 12.6948135 251.005789 14.6315326 251.005789 17.0121169L251.005789 30.3873978C251.005789 30.8544539 251.390961 31.2325213 251.866665 31.2325213L252.900924 31.2325213C253.37553 31.2325213 253.760702 30.8544539 253.760702 30.3873978L253.760702 17.0121169C253.760702 14.5910831 255.689855 12.6948135 258.151775 12.6948135 260.558278 12.6948135 262.516511 14.6315326 262.516511 17.0121169L262.516511 30.3873978C262.516511 30.8544539 262.901135 31.2325213 263.376839 31.2325213L264.411097 31.2325213C264.885704 31.2325213 265.271425 30.8544539 265.271425 30.3873978L265.271425 17.0121169C265.271425 13.139218 262.07702 9.98793708 258.151775 9.98793708"/>
    <path fill="#131516" d="M180.275887 26.1221393C179.81774 26.9510831 179.179627 27.612836 178.378557 28.0885213 177.575841 28.5658247 176.665035 28.8074427 175.673024 28.8074427 174.680465 28.8074427 173.770208 28.5658247 172.967492 28.0885213 172.163678 27.611218 171.519529 26.9500045 171.054799 26.1221393 170.58952 25.2931955 170.352491 24.3499146 170.352491 23.3176449 170.352491 22.2864539 170.588971 21.3383191 171.05425 20.4991281 171.518981 19.663173 172.16258 18.9971056 172.967492 18.5176449 173.771854 18.0408809 174.681563 17.7992629 175.673024 17.7992629 176.663937 17.7992629 177.574195 18.0408809 178.378557 18.5176449 179.180176 18.9949483 179.818289 19.6615551 180.275887 20.4980494 180.732387 21.3372404 180.963381 22.2864539 180.963381 23.3176449 180.963381 24.3504539 180.732387 25.2931955 180.275887 26.1221393M182.848091 19.1389483C182.120543 17.8941843 181.119205 16.9002067 179.870413 16.183982 178.622719 15.4682966 177.210421 15.1058697 175.673024 15.1058697 174.136176 15.1058697 172.714551 15.4682966 171.445458 16.183982 170.178011 16.8996674 169.170638 17.8931056 168.452418 19.1389483 167.7331 20.3842517 167.368778 21.7897348 167.368778 23.3176449 167.368778 24.848791 167.707861 26.2542742 168.3767 27.4968809 169.04499 28.7411056 169.976646 29.7313079 171.144234 30.4372854 172.31237 31.1432629 173.634684 31.5013753 175.07277 31.5013753 175.127638 31.5013753 175.182506 31.4949034 175.237374 31.494364 175.287303 31.4954427 175.336684 31.5013753 175.387163 31.5013753 176.346253 31.5013753 177.261997 31.3244764 178.112448 31.0170607 178.216697 30.9825438 178.324238 30.9539596 178.426292 30.9151281 178.634241 30.8336899 178.861943 30.7209708 179.092388 30.5931506 179.140671 30.5678022 179.188955 30.5419146 179.236141 30.5154876 179.240531 30.5133303 179.244371 30.5106337 179.248212 30.5084764 179.931317 30.1314876 180.530473 29.6396225 181.068178 29.0895101L181.068178 30.4847461C181.068178 30.9669034 181.467067 31.3589933 181.958134 31.3589933L183.057137 31.3589933C183.548753 31.3589933 183.946545 30.9669034 183.946545 30.4847461L183.946545 29.9589034 183.946545 24.3310382 183.946545 23.3176449C183.946545 21.7897348 183.577833 20.3842517 182.848091 19.1389483M152.063396 23.3562607C152.063396 20.2794067 154.434235 17.7753169 157.349912 17.7753169 160.263943 17.7753169 162.635879 20.2794067 162.635879 23.3562607 162.635879 26.3878112 160.263943 28.8541483 157.349912 28.8541483 154.434235 28.8541483 152.063396 26.3878112 152.063396 23.3562607M164.529916 9.10888989L163.495658 9.10888989C163.020502 9.10888989 162.635879 9.4869573 162.635879 9.95455281L162.635879 17.1421483C161.214802 15.8100135 159.341066 15.0409348 157.349912 15.0409348 152.915494 15.0409348 149.308483 18.7709124 149.308483 23.3562607 149.308483 27.6169348 152.50618 31.1257888 156.579568 31.5221933L156.579019 31.5238112C156.833057 31.5475416 157.08929 31.5621034 157.349912 31.5621034 157.604499 31.5621034 157.857439 31.5491596 158.108185 31.5243506 162.159626 31.1516764 165.334279 27.8245753 165.384757 23.7559011L165.390244 23.7451146 165.390244 9.95455281C165.390244 9.4869573 165.005072 9.10888989 164.529916 9.10888989M129.684674 17.610391C131.935901 17.610391 133.894134 19.101627 134.648566 21.2734921L124.73779 21.2734921C125.471921 19.1021663 127.423022 17.610391 129.684674 17.610391L129.684674 17.610391zM134.785736 27.0405034C134.448847 26.7983461 133.978081 26.8490427 133.706486 27.1613124 132.820919 28.1817169 131.55018 28.6892225 129.85202 28.6892225 127.049372 28.6892225 124.859048 26.7179865 124.462353 23.9814472L136.864678 23.9814472C137.334895 23.9814472 137.717873 23.6093124 137.725006 23.1476494 137.758475 21.0086831 136.828465 18.7845034 135.237847 17.1967281 133.738309 15.6995596 131.765262 14.8749303 129.684674 14.8749303 125.250255 14.8749303 121.643244 18.6049079 121.643244 23.1907955 121.643244 27.7923236 125.248609 31.3960989 129.85202 31.3960989 132.39295 31.3960989 134.436776 30.5089079 135.840296 28.8601888 136.142617 28.5053124 136.078422 27.9697618 135.697639 27.6963236L134.785736 27.0405034z"/>
    <path fill="#003741" d="M286.162242,24.9112989 C285.785849,24.6869393 285.292587,24.7969618 285.062691,25.1664 C283.650941,27.4353438 281.257058,28.8548494 278.652482,28.8548494 C274.413393,28.8548494 270.963853,25.2300404 270.963853,20.775209 C270.963853,16.3344 274.413393,12.7214562 278.652482,12.7214562 C281.383254,12.7214562 283.845173,14.1932764 285.203701,16.5371865 C285.416039,16.9028494 285.891195,17.027973 286.270332,16.8327371 L287.301298,16.3009618 C287.713355,16.0879281 287.850525,15.5825798 287.621178,15.184018 C285.7853,11.9944449 282.438362,10.0145798 278.652482,10.0145798 C272.894103,10.0145798 268.209487,14.8415461 268.209487,20.775209 C268.209487,26.7228944 272.894103,31.5611865 278.652482,31.5611865 C282.223829,31.5611865 285.5362,29.6223101 287.43737,26.5772764 C287.667267,26.2094562 287.526805,25.7251416 287.152606,25.5018607 L286.162242,24.9112989 Z"/>
    <path fill="#E6000F" d="M10.4856815,7.35662022 C15.235041,10.8228674 18.3312327,16.350418 18.4096937,22.5931146 L18.4096937,22.5931146 L18.4096937,37.5739685 C16.5546124,36.9364854 15.0040474,36.2698787 13.7799461,35.2737438 C11.6274811,33.5209348 10.4856815,30.5692045 10.4856815,24.1345079 L10.4856815,24.1345079 Z M28.7852006,7.35662022 L28.7852006,24.1345079 C28.7852006,30.5692045 27.6434011,33.5209348 25.4909361,35.2737438 C24.2668347,36.2698787 22.7168185,36.9364854 20.8611884,37.5739685 L20.8611884,22.5931146 C20.9401981,16.350418 24.0352925,10.8228674 28.7852006,7.35662022 Z"/>
    <path fill="#F07814" d="M39.2711016,28.159982 L39.270553,3.60663371 C36.4234612,3.77382472 33.7415216,4.53858876 31.3503815,5.7747236 L31.3503815,26.0474427 C31.3503815,39.5073978 21.4664904,39.9749933 19.6355508,39.9749933 C17.8046113,39.9749933 7.92017146,39.4869034 7.92017146,26.0474427 L7.92017146,5.7747236 C5.52903137,4.53858876 2.84709177,3.77382472 -1.42108547e-14,3.60663371 L-1.42108547e-14,28.159982 C-1.42108547e-14,39.3056899 8.80957901,47.7731056 19.6355508,47.7731056 C30.4615226,47.7731056 39.2711016,39.3056899 39.2711016,28.159982 Z"/>
    <path fill="#131516" d="M19.6355508,13.3882247 C21.0275477,10.6187865 23.005533,8.18588764 25.4136821,6.24808989 C23.976145,3.76988764 22.0014517,1.63307865 19.6355508,0 C17.2696499,1.63307865 15.2949567,3.76988764 13.8568708,6.24808989 C16.2655686,8.18588764 18.2435539,10.6187865 19.6355508,13.3882247"/>
    <path fill="#F07814" d="M59.176848 38.457128L58.698608 38.457128C58.535088 38.457128 58.402928 38.589288 58.402928 38.752808L58.402928 44.522488C58.402928 46.070888 57.331648 47.110808 55.736208 47.110808 54.140768 47.110808 53.068928 46.070888 53.068928 44.522488L53.068928 38.752808C53.068928 38.589288 52.937328 38.457128 52.773808 38.457128L52.295568 38.457128C52.132048 38.457128 51.999888 38.589288 51.999888 38.752808L51.999888 44.522488C51.999888 46.649928 53.570688 48.194408 55.736208 48.194408 57.936448 48.194408 59.471968 46.684088 59.471968 44.522488L59.471968 38.752808C59.471968 38.589288 59.339808 38.457128 59.176848 38.457128M64.894392 40.604728C64.071192 40.604728 63.337032 40.879128 62.783192 41.376408L62.783192 41.068408C62.783192 40.904888 62.651032 40.772728 62.488072 40.772728L62.009832 40.772728C61.846312 40.772728 61.714152 40.904888 61.714152 41.068408L61.714152 47.730168C61.714152 47.893688 61.846312 48.025288 62.009832 48.025288L62.488072 48.025288C62.651032 48.025288 62.783192 47.893688 62.783192 47.730168L62.783192 43.707128C62.783192 42.541208 63.685352 41.662008 64.881512 41.662008 66.142072 41.662008 66.837032 42.388328 66.837032 43.707128L66.837032 47.730168C66.837032 47.893688 66.969192 48.025288 67.132152 48.025288L67.610392 48.025288C67.773352 48.025288 67.905512 47.893688 67.905512 47.730168L67.905512 43.707128C67.905512 41.793608 66.751912 40.604728 64.894392 40.604728M70.999176 40.77312L70.520936 40.77312C70.357416 40.77312 70.225256 40.90528 70.225256 41.06824L70.225256 47.72944C70.225256 47.89296 70.357416 48.02512 70.520936 48.02512L70.999176 48.02512C71.162136 48.02512 71.294856 47.89296 71.294856 47.72944L71.294856 41.06824C71.294856 40.90528 71.162136 40.77312 70.999176 40.77312M70.999176 38.457128L70.520936 38.457128C70.357416 38.457128 70.225256 38.589288 70.225256 38.752808L70.225256 39.565368C70.225256 39.728888 70.357416 39.861608 70.520936 39.861608L70.999176 39.861608C71.162136 39.861608 71.294856 39.728888 71.294856 39.565368L71.294856 38.752808C71.294856 38.589288 71.162136 38.457128 70.999176 38.457128M78.734176 40.772616L78.216736 40.772616C78.094656 40.772616 77.984336 40.848216 77.940656 40.962456L75.914576 46.244376 73.888496 40.962456C73.844256 40.848216 73.734496 40.772616 73.612416 40.772616L73.094976 40.772616C72.997536 40.772616 72.906256 40.820776 72.851376 40.900856 72.795936 40.981496 72.784176 41.083416 72.818896 41.174696L75.379776 47.835896C75.424016 47.950136 75.533216 48.025736 75.655296 48.025736L76.173856 48.025736C76.295936 48.025736 76.405696 47.950136 76.449376 47.835896L79.009696 41.174696C79.044976 41.083416 79.032656 40.981496 78.977776 40.900856 78.922336 40.820776 78.831616 40.772616 78.734176 40.772616M83.40368 40.604728C81.4084 40.604728 79.7844 42.316088 79.7844 44.419448 79.7844 46.528408 81.4084 48.180968 83.48152 48.180968 85.15648 48.180968 86.3588 47.318008 86.86672 45.751688 86.89584 45.661528 86.88072 45.562968 86.82472 45.486808 86.76872 45.410088 86.68024 45.364728 86.5856 45.364728L86.0816 45.364728C85.95784 45.364728 85.84696 45.442008 85.80384 45.558488 85.42472 46.588328 84.64296 47.110808 83.48152 47.110808 82.0916 47.110808 81.01304 46.088808 80.87024 44.688248L86.7284 44.688248C86.88968 44.688248 87.02072 44.558888 87.02352 44.396488 87.03864 43.417048 86.61976 42.397288 85.9024 41.668168 85.2276 40.982728 84.34 40.604728 83.40368 40.604728L83.40368 40.604728zM80.97552 43.618648C81.29136 42.481288 82.26632 41.687768 83.40368 41.687768 84.53712 41.687768 85.51544 42.481288 85.84192 43.618648L80.97552 43.618648zM92.271784 40.632616C91.332664 40.524536 90.490424 40.760856 89.830744 41.320296L89.830744 41.068296C89.830744 40.905336 89.698024 40.773176 89.535064 40.773176L89.043384 40.773176C88.879864 40.773176 88.747704 40.905336 88.747704 41.068296L88.747704 47.730056C88.747704 47.893576 88.879864 48.025736 89.043384 48.025736L89.535064 48.025736C89.698024 48.025736 89.830744 47.893576 89.830744 47.730056L89.830744 43.707016C89.830744 43.083736 90.063144 42.518136 90.478104 42.147416 90.868424 41.769416 91.482744 41.595816 92.212424 41.660776 92.294744 41.669736 92.376504 41.640616 92.437544 41.584056 92.499144 41.528616 92.533864 41.449096 92.533864 41.366776L92.533864 40.926056C92.533864 40.775976 92.421304 40.649416 92.271784 40.632616M96.547496 43.634384C94.914536 43.405344 94.623896 43.152784 94.616056 42.706464 94.612696 42.500384 94.694456 42.311664 94.857416 42.145344 95.168216 41.829504 95.717576 41.648624 96.364376 41.648624 97.083416 41.648624 98.004056 41.856944 98.306456 42.849264 98.343976 42.973584 98.459336 43.058704 98.589256 43.058704L99.080376 43.058704C99.171096 43.058704 99.256216 43.017264 99.312216 42.946144 99.368776 42.876144 99.388936 42.782624 99.368776 42.695264 99.054616 41.366384 97.954776 40.604784 96.350936 40.604784 94.501256 40.604784 93.533576 41.664304 93.533576 42.717104 93.563816 44.273904 95.175496 44.509104 96.386776 44.685504 98.074616 44.926864 98.432456 45.330624 98.449816 45.875504 98.468856 46.140944 98.384856 46.380624 98.207896 46.567104 97.864056 46.923264 97.246376 47.136624 96.558696 47.136624 95.809416 47.136624 94.513016 46.953504 94.247016 45.726544 94.217896 45.591024 94.097496 45.493584 93.958616 45.493584L93.479816 45.493584C93.393576 45.493584 93.311256 45.532224 93.254696 45.597744 93.198696 45.663824 93.175176 45.751184 93.188056 45.836864 93.425496 47.304624 94.690536 48.181024 96.571016 48.181024 97.582376 48.181024 98.438616 47.873584 98.983496 47.314144 99.347496 46.935024 99.547416 46.395744 99.531736 45.833504L99.531736 45.827344C99.446616 44.067264 97.562776 43.786144 96.547496 43.634384M102.198904 38.457128L101.720664 38.457128C101.557144 38.457128 101.424984 38.589288 101.424984 38.752808L101.424984 39.565368C101.424984 39.728888 101.557144 39.861608 101.720664 39.861608L102.198904 39.861608C102.361864 39.861608 102.494024 39.728888 102.494024 39.565368L102.494024 38.752808C102.494024 38.589288 102.361864 38.457128 102.198904 38.457128M102.184736 40.77312L101.706496 40.77312C101.542976 40.77312 101.410816 40.90528 101.410816 41.06824L101.410816 47.72944C101.410816 47.89296 101.542976 48.02512 101.706496 48.02512L102.184736 48.02512C102.348256 48.02512 102.480416 47.89296 102.480416 47.72944L102.480416 41.06824C102.480416 40.90528 102.348256 40.77312 102.184736 40.77312M107.514256 40.77312L106.011216 40.77312 106.011216 39.64528C106.011216 39.48176 105.879056 39.3496 105.716096 39.3496L105.237856 39.3496C105.074896 39.3496 104.942176 39.48176 104.942176 39.64528L104.942176 40.77312 104.331776 40.77312C104.168816 40.77312 104.036656 40.90528 104.036656 41.06824L104.036656 41.54704C104.036656 41.71056 104.168816 41.84216 104.331776 41.84216L104.942176 41.84216 104.942176 45.42728C104.942176 46.30704 105.210416 47.01768 105.719456 47.48248 106.119296 47.84816 106.646816 48.03744 107.258896 48.03744 107.350736 48.03744 107.444816 48.03352 107.540576 48.02456 107.692896 48.01056 107.809936 47.88288 107.809936 47.73L107.809936 47.2904C107.809936 47.20976 107.776896 47.13192 107.719216 47.07704 107.660976 47.02104 107.584256 46.9992 107.502496 46.99416 107.029856 47.01208 106.663616 46.90512 106.420016 46.67048 106.148976 46.41008 106.011216 45.99176 106.011216 45.42728L106.011216 41.84216 107.514256 41.84216C107.677216 41.84216 107.809936 41.71056 107.809936 41.54704L107.809936 41.06824C107.809936 40.90528 107.677216 40.77312 107.514256 40.77312M167.536568 46.679384L167.536568 42.915064C167.536568 41.490984 166.444568 40.640904 164.615048 40.640904 162.990488 40.640904 161.867688 41.405864 161.534488 42.740344 161.512648 42.828264 161.531688 42.921784 161.588248 42.993464 161.644808 43.065144 161.730488 43.107704 161.821208 43.107704L162.313448 43.107704C162.441688 43.107704 162.556488 43.023704 162.595128 42.900504 162.906488 41.907064 163.865208 41.697624 164.615048 41.697624 165.459528 41.697624 166.466968 41.908744 166.466968 42.915064 166.466968 43.434184 165.790488 43.587624 164.277928 43.733224 163.350008 43.817784 161.177208 44.014904 161.177208 46.019144 161.177208 47.502584 162.583368 48.177944 163.890408 48.177944 164.952728 48.177944 165.870568 47.886184 166.512328 47.362024 166.546488 47.558584 166.601928 47.734984 166.676968 47.892904 166.725688 47.995944 166.829288 48.061464 166.943528 48.061464L167.434648 48.061464C167.533208 48.061464 167.624488 48.012744 167.679928 47.931544 167.734808 47.850344 167.745448 47.747304 167.709608 47.656024 167.617768 47.425864 167.536568 46.970024 167.536568 46.679384M163.890408 47.108344C163.874168 47.108344 162.284888 47.095464 162.284888 46.006824 162.284888 45.503944 162.447848 44.952344 164.381528 44.761944 165.089368 44.702584 165.868888 44.637064 166.466968 44.360984L166.466968 45.347144C166.466968 46.564024 165.172808 47.108344 163.890408 47.108344M130.375584 38.436912L129.858704 38.436912C129.741104 38.436912 129.634704 38.505792 129.587104 38.613312L126.171664 46.391712 122.756224 38.613312C122.708624 38.505792 122.602224 38.436912 122.484624 38.436912L121.981184 38.436912C121.817664 38.436912 121.685504 38.569072 121.685504 38.732032L121.685504 47.708832C121.685504 47.872352 121.817664 48.004512 121.981184 48.004512L122.459424 48.004512C122.622384 48.004512 122.754544 47.872352 122.754544 47.708832L122.754544 41.264352 125.642464 47.828112C125.689504 47.935632 125.795344 48.004512 125.912944 48.004512L126.443264 48.004512C126.560304 48.004512 126.666704 47.935072 126.713744 47.827552L129.588224 41.269392 129.588224 47.708832C129.588224 47.872352 129.720944 48.004512 129.883904 48.004512L130.375584 48.004512C130.539104 48.004512 130.671264 47.872352 130.671264 47.708832L130.671264 38.732032C130.671264 38.569072 130.539104 38.436912 130.375584 38.436912M136.144256 40.601424C134.148416 40.601424 132.524416 42.312784 132.524416 44.415584 132.524416 46.525104 134.148976 48.177664 136.222096 48.177664 137.897056 48.177664 139.099376 47.314704 139.607296 45.748384 139.636416 45.658224 139.621296 45.559664 139.565296 45.483504 139.509296 45.406224 139.420816 45.361424 139.326176 45.361424L138.822176 45.361424C138.698416 45.361424 138.587536 45.438704 138.544416 45.555184 138.165296 46.585024 137.383536 47.107504 136.222096 47.107504 134.832176 47.107504 133.753616 46.085504 133.610816 44.684944L139.468976 44.684944C139.630256 44.684944 139.761296 44.555584 139.764096 44.393184 139.779216 43.413184 139.359776 42.393424 138.642416 41.664304 137.967616 40.978864 137.080016 40.601424 136.144256 40.601424L136.144256 40.601424zM133.716096 43.614784C134.031936 42.477984 135.006896 41.684464 136.144256 41.684464 137.277696 41.684464 138.256016 42.477984 138.582496 43.614784L133.716096 43.614784zM147.85016 37.807416L147.37192 37.807416C147.2084 37.807416 147.07624 37.939576 147.07624 38.102536L147.07624 41.740296C146.41992 41.021816 145.50432 40.601256 144.526 40.601256 142.53016 40.601256 140.90672 42.312616 140.90672 44.415416 140.90672 46.489656 142.53016 48.178056 144.526 48.178056 145.50488 48.178056 146.42048 47.761976 147.07624 47.054136L147.07624 47.726696C147.07624 47.889656 147.2084 48.021816 147.37192 48.021816L147.85016 48.021816C148.01368 48.021816 148.14584 47.889656 148.14584 47.726696L148.14584 38.102536C148.14584 37.939576 148.01368 37.807416 147.85016 37.807416M144.526 47.107896C143.11984 47.107896 141.97632 45.899976 141.97632 44.415416 141.97632 42.908456 143.11984 41.684296 144.526 41.684296 145.93216 41.684296 147.07624 42.908456 147.07624 44.415416 147.07624 45.899976 145.93216 47.107896 144.526 47.107896M151.29108 38.436912L150.81284 38.436912C150.64932 38.436912 150.5166 38.569072 150.5166 38.732592L150.5166 39.545152C150.5166 39.708672 150.64932 39.841392 150.81284 39.841392L151.29108 39.841392C151.45404 39.841392 151.5862 39.708672 151.5862 39.545152L151.5862 38.732592C151.5862 38.569072 151.45404 38.436912 151.29108 38.436912M151.29108 40.752344L150.81284 40.752344C150.64932 40.752344 150.5166 40.885064 150.5166 41.048024L150.5166 47.709224C150.5166 47.872744 150.64932 48.004344 150.81284 48.004344L151.29108 48.004344C151.45404 48.004344 151.5862 47.872744 151.5862 47.709224L151.5862 41.048024C151.5862 40.885064 151.45404 40.752344 151.29108 40.752344M224.305448 43.63108C222.672488 43.40204 222.381288 43.14948 222.373448 42.70372 222.370648 42.49708 222.451288 42.30836 222.615368 42.1426 222.926168 41.82564 223.475528 41.64532 224.122328 41.64532 224.841368 41.64532 225.762008 41.85364 226.064408 42.84596 226.101928 42.97028 226.217288 43.05596 226.347208 43.05596L226.837768 43.05596C226.929048 43.05596 227.014168 43.01396 227.070168 42.9434 227.125608 42.87284 227.146328 42.77932 227.125608 42.69196 226.812008 41.36308 225.711608 40.60204 224.108888 40.60204 222.258648 40.60204 221.290968 41.66156 221.290968 42.7138 221.322328 44.27116 222.933448 44.5058 224.144728 44.6822 225.832568 44.92356 226.189848 45.32788 226.207208 45.87276 226.227368 46.13764 226.142248 46.37732 225.965848 46.5638 225.622008 46.92052 225.004328 47.13388 224.316088 47.13388 223.567368 47.13388 222.270408 46.9502 222.004968 45.72324 221.975848 45.58772 221.855448 45.49028 221.716568 45.49028L221.237768 45.49028C221.151528 45.49028 221.069208 45.52892 221.012648 45.59444 220.956648 45.66052 220.932568 45.74788 220.946008 45.83356 221.183448 47.30132 222.448488 48.17772 224.328968 48.17772 225.340328 48.17772 226.196568 47.87028 226.741448 47.31084 227.104328 46.93284 227.304248 46.393 227.289128 45.8302L227.289128 45.82404C227.204568 44.06396 225.320168 43.78284 224.305448 43.63108M171.037072 41.355016L171.037072 38.085736C171.037072 37.921656 170.904912 37.790056 170.741952 37.790056L170.262592 37.790056C170.099632 37.790056 169.967472 37.921656 169.967472 38.085736L169.967472 47.709336C169.967472 47.872856 170.099632 48.004456 170.262592 48.004456L170.741952 48.004456C170.904912 48.004456 171.037072 47.872856 171.037072 47.709336L171.037072 43.686296 171.037072 41.355016zM190.09404 40.601424C188.0982 40.601424 186.47364 42.312784 186.47364 44.415584 186.47364 46.525104 188.0982 48.177664 190.17132 48.177664 191.84628 48.177664 193.0486 47.314704 193.55708 45.748384 193.5862 45.658224 193.57108 45.559664 193.51452 45.483504 193.45964 45.406224 193.37116 45.361424 193.27596 45.361424L192.77196 45.361424C192.6482 45.361424 192.53732 45.438704 192.4942 45.555184 192.11452 46.585024 191.33388 47.107504 190.17132 47.107504 188.78196 47.107504 187.7034 46.085504 187.56116 44.684944L193.41876 44.684944C193.58004 44.684944 193.71108 44.555584 193.71332 44.393184 193.72844 43.413184 193.309 42.392304 192.59164 41.663744 191.91628 40.978864 191.02924 40.601424 190.09404 40.601424L190.09404 40.601424zM187.66532 43.614784C187.98228 42.477984 188.95668 41.684464 190.09404 41.684464 191.22636 41.684464 192.2058 42.477984 192.53228 43.614784L187.66532 43.614784zM211.31608 40.601424C209.32024 40.601424 207.69568 42.312784 207.69568 44.415584 207.69568 46.525104 209.32024 48.177664 211.39336 48.177664 213.06776 48.177664 214.27064 47.314704 214.77856 45.748384 214.80768 45.658224 214.79256 45.559664 214.73656 45.483504 214.68112 45.406224 214.59264 45.361424 214.498 45.361424L213.994 45.361424C213.87024 45.361424 213.7588 45.438704 213.71568 45.555184 213.33656 46.585024 212.55536 47.107504 211.39336 47.107504 210.00344 47.107504 208.92488 46.085504 208.78264 44.684944L214.64024 44.684944C214.80152 44.684944 214.93312 44.555584 214.93536 44.393184 214.95048 43.413184 214.53048 42.392304 213.81312 41.663744 213.13832 40.978864 212.25128 40.601424 211.31608 40.601424L211.31608 40.601424zM208.88736 43.614784C209.20376 42.477984 210.17816 41.684464 211.31608 41.684464 212.44784 41.684464 213.42728 42.477984 213.75432 43.614784L208.88736 43.614784zM198.617632 40.583896C197.795552 40.583896 197.060832 40.857736 196.507552 41.355016L196.507552 41.047576C196.507552 40.884056 196.375392 40.751896 196.211872 40.751896L195.734192 40.751896C195.570672 40.751896 195.437952 40.884056 195.437952 41.047576L195.437952 47.709336C195.437952 47.872856 195.570672 48.004456 195.734192 48.004456L196.211872 48.004456C196.375392 48.004456 196.507552 47.872856 196.507552 47.709336L196.507552 43.686296C196.507552 42.520376 197.409712 41.641176 198.605312 41.641176 199.865872 41.641176 200.560832 42.367496 200.560832 43.686296L200.560832 47.709336C200.560832 47.872856 200.692992 48.004456 200.855952 48.004456L201.334192 48.004456C201.497152 48.004456 201.629312 47.872856 201.629312 47.709336L201.629312 43.686296C201.629312 41.772776 200.475712 40.583896 198.617632 40.583896M206.547344 40.91312L205.044304 40.91312 205.044304 39.78584C205.044304 39.62232 204.912144 39.49016 204.749184 39.49016L204.270944 39.49016C204.107984 39.49016 203.975264 39.62232 203.975264 39.78584L203.975264 40.91312 203.364304 40.91312C203.201344 40.91312 203.069184 41.04528 203.069184 41.2088L203.069184 41.6876C203.069184 41.85112 203.201344 41.98272 203.364304 41.98272L203.975264 41.98272 203.975264 45.56784C203.975264 46.4476 204.243504 47.15824 204.752544 47.62304 205.152384 47.98872 205.679904 48.178 206.291984 48.178 206.383824 48.178 206.477904 48.17408 206.573664 48.16512 206.725984 48.15112 206.842464 48.02344 206.842464 47.87056L206.842464 47.43096C206.842464 47.34976 206.809984 47.27248 206.751744 47.2176 206.694624 47.1616 206.621824 47.13976 206.535584 47.13472 206.068544 47.15488 205.697264 47.04568 205.453104 46.8116 205.182064 46.5512 205.044304 46.13232 205.044304 45.56784L205.044304 41.98272 206.547344 41.98272C206.710304 41.98272 206.842464 41.85112 206.842464 41.6876L206.842464 41.2088C206.842464 41.04528 206.710304 40.91312 206.547344 40.91312M220.097776 40.61128C219.160336 40.50656 218.316976 40.74008 217.656176 41.29896L217.656176 41.04752C217.656176 40.88456 217.523456 40.7524 217.360496 40.7524L216.868816 40.7524C216.705296 40.7524 216.573136 40.88456 216.573136 41.04752L216.573136 47.70928C216.573136 47.87224 216.705296 48.0044 216.868816 48.0044L217.360496 48.0044C217.523456 48.0044 217.656176 47.87224 217.656176 47.70928L217.656176 43.68624C217.656176 43.0624 217.889136 42.49736 218.303536 42.12664 218.693856 41.74864 219.307616 41.57504 220.037856 41.63944 220.120736 41.6484 220.202496 41.61928 220.263536 41.56328 220.324576 41.50784 220.359856 41.42832 220.359856 41.346L220.359856 40.90472C220.359856 40.7552 220.247296 40.62864 220.097776 40.61128M184.928264 46.0696C184.817384 45.95928 184.640424 45.96488 184.528984 46.07464 183.866504 46.72368 182.997944 47.10784 182.071704 47.10784 180.052904 47.10784 178.409864 45.35448 178.409864 43.19904 178.409864 41.05144 180.052904 39.30368 182.071704 39.30368 183.072424 39.30368 183.999784 39.72312 184.668984 40.43208 184.779864 40.54968 184.962424 40.55976 185.076104 40.44608L185.444024 40.07816C185.548744 39.97344 185.556584 39.80096 185.454664 39.69176 184.591144 38.77448 183.390504 38.23464 182.071704 38.23464 179.462104 38.23464 177.228264 40.4612 177.228264 43.19904 177.228264 45.94416 179.462104 48.178 182.071704 48.178 183.285224 48.178 184.433224 47.67344 185.295064 46.82952 185.404824 46.722 185.400904 46.54224 185.291704 46.4336L184.928264 46.0696zM159.47016 46.238048C159.35704 46.124928 159.1672 46.126608 159.06528 46.250368 158.62064 46.795808 157.95592 47.108288 157.17192 47.108288 155.76632 47.108288 154.6228 45.899808 154.6228 44.415248 154.6228 42.908848 155.76632 41.684128 157.17192 41.684128 157.93632 41.684128 158.596 41.998848 159.04848 42.547088 159.1504 42.670288 159.33968 42.671408 159.4528 42.558288L159.82744 42.183648C159.92768 42.082288 159.94168 41.917648 159.84928 41.809008 159.20024 41.044048 158.25328 40.601648 157.17192 40.601648 155.17608 40.601648 153.55264 42.312448 153.55264 44.415248 153.55264 46.489488 155.17608 48.177888 157.17192 48.177888 158.26112 48.177888 159.20808 47.736608 159.85376 46.973888 159.94616 46.865808 159.93272 46.700608 159.83192 46.599808L159.47016 46.238048zM109.60692 51.429024C111.04388 51.573504 111.84412 51.020784 112.3498 49.672304L115.02212 42.576544 115.5558 41.188864C115.59052 41.098144 115.57876 40.995664 115.52332 40.915584 115.46844 40.835504 115.37716 40.787344 115.27972 40.787344L114.62564 40.790144C114.50804 40.790144 114.37588 40.876384 114.32716 40.985024L114.32268 40.993424 113.845 42.337984 112.25068 46.784944 110.5102 42.028864 110.13836 40.998464 110.12996 40.981664C110.07956 40.875264 109.95636 40.786784 109.84044 40.786784L109.183 40.786784C109.08612 40.786784 108.99484 40.835504 108.9394 40.915584 108.88396 40.995664 108.8722 41.097584 108.90692 41.188864L109.47588 42.667264 109.47588 42.667264 111.6134 48.228624 111.23148 49.247264C110.92124 50.093984 110.569 50.410384 109.6282 50.342624L109.58676 50.342624C109.42324 50.342624 109.30172 50.462464 109.30172 50.625424L109.30172 51.117104C109.30172 51.268864 109.45516 51.409984 109.60356 51.429024"/>
  </g>
</svg>
