<!-- Generated by IcoMoon.io -->
<svg version="1.1" xmlns="http://www.w3.org/2000/svg" width="40" height="40" viewBox="0 0 40 40">
<title>timer</title>
<path d="M32.64 14.2c2.089 2.677 3.349 6.089 3.349 9.796 0 8.837-7.163 16-16 16s-16-7.163-16-16c0-8.135 6.072-14.853 13.931-15.867l0.080-0.008v-4.12h4v4.12c2.92 0.36 5.6 1.52 7.8 3.24l2.92-2.92 2.84 2.84-2.92 2.9zM20 36c6.627 0 12-5.373 12-12s-5.373-12-12-12v0c-6.627 0-12 5.373-12 12s5.373 12 12 12v0zM14 0h12v4h-12v-4zM24.24 16.92l2.84 2.84-7.080 7.040-2.82-2.8 7.060-7.080z"></path>
</svg>
