<!-- Generated by IcoMoon.io -->
<svg version="1.1" xmlns="http://www.w3.org/2000/svg" width="54" height="54" viewBox="0 0 54 54">
<title>clock</title>
<path d="M27 3c-13.254 0-24 10.745-24 24s10.746 24 24 24 24-10.745 24-24-10.746-24-24-24zM27 45c-9.926 0-18-8.075-18-18s8.074-18 18-18 18 8.075 18 18-8.074 18-18 18z"></path>
<path d="M33.029 27h-4.529c-0.829 0-1.5-0.672-1.5-1.5v-4.53c0-1.64-1.33-2.97-2.971-2.97h-0.059c-1.641 0-2.971 1.33-2.971 2.97v9.060c0 1.64 1.33 2.97 2.971 2.97h9.059c1.641 0 2.971-1.33 2.971-2.97v-0.060c0-1.64-1.33-2.97-2.971-2.97z"></path>
</svg>
