<!-- Generated by IcoMoon.io -->
<svg version="1.1" xmlns="http://www.w3.org/2000/svg" width="60" height="60" viewBox="0 0 60 60">
<title>timer</title>
<path d="M48.96 21.3c3.133 4.016 5.024 9.134 5.024 14.694 0 13.255-10.745 24-24 24s-24-10.745-24-24c0-12.203 9.107-22.279 20.896-23.801l0.12-0.013v-6.18h6v6.18c4.38 0.54 8.4 2.28 11.7 4.86l4.38-4.38 4.26 4.26-4.38 4.35zM30 54c9.941 0 18-8.059 18-18s-8.059-18-18-18v0c-9.941 0-18 8.059-18 18s8.059 18 18 18v0zM21 0h18v6h-18v-6zM36.36 25.38l4.26 4.26-10.62 10.56-4.23-4.2 10.59-10.62z"></path>
</svg>
