<svg xmlns="http://www.w3.org/2000/svg" width="54" height="54">
  <path d="M43.8 21h-.419A11.921 11.921 0 0045 15c0-6.627-5.373-12-12-12S21 8.373 21 15c-6.627 0-12 5.373-12 12 0 2.188.595 4.233 1.619 6H10.2C5.926 34.915 3 39.015 3 43.389V48c0 1.052 1.661 3 2.906 3h30.469C37.62 51 39 49.052 39 48v-4.611c0-1.526-.375-3.011-1.02-4.389h10.395C49.62 39 51 37.052 51 36v-4.611c0-4.374-2.925-8.475-7.2-10.389zM33 9c3.308 0 6 2.692 6 6s-2.692 6-6 6c-.633 0-1.232-.125-1.805-.308a12.04 12.04 0 00-3.888-3.886c-.182-.574-.308-1.173-.308-1.806 0-3.308 2.692-6 6-6zM21 21a6 6 0 010 12c-2.965 0-5.414-2.157-5.897-4.984A5.312 5.312 0 0115 27a6 6 0 016-6zm12 24H9v-1.611c0-1.628 1.069-3.322 2.695-4.389h18.609c1.626 1.068 2.695 2.761 2.695 4.389V45zm12-12H31.381A11.921 11.921 0 0033 27h9.305C43.931 28.068 45 29.761 45 31.389V33z"/>
</svg>
